<svg width="316" height="203" viewBox="0 0 316 203" fill="none" xmlns="http://www.w3.org/2000/svg">
<g filter="url(#filter0_d_18711_282)">
<rect x="30" y="15" width="256" height="143" rx="10" fill="#333333"/>
</g>
<path d="M56.512 44.704L56.928 46.128H57.008L57.328 44.656L59.472 38.8H60.832L58 46.08C57.712 46.8373 57.456 47.472 57.232 47.984C57.0187 48.4853 56.8 48.896 56.576 49.216C56.352 49.5253 56.112 49.7493 55.856 49.888C55.6 50.016 55.2853 50.08 54.912 50.08C54.56 50.08 54.2773 50.0533 54.064 50C53.8613 49.936 53.6693 49.8453 53.488 49.728L53.888 48.624C54.1013 48.7413 54.2987 48.816 54.48 48.848C54.6613 48.88 54.8267 48.896 54.976 48.896C55.2747 48.896 55.5253 48.7467 55.728 48.448C55.9307 48.1387 56.1067 47.6853 56.256 47.088L52.112 38.8H53.648L56.512 44.704ZM63.2636 46.4H62.5276V50H61.2476V42H62.5276V45.616L63.2156 45.392L65.7756 42H67.1676L64.6876 45.216L64.0156 45.744L64.8476 46.384L67.5196 50H65.9356L63.2636 46.4ZM68.7603 42.592C69.1656 42.3467 69.6349 42.1653 70.1683 42.048C70.7123 41.9307 71.2776 41.872 71.8643 41.872C72.4189 41.872 72.8616 41.9467 73.1923 42.096C73.5336 42.2453 73.7896 42.4427 73.9603 42.688C74.1416 42.9227 74.2589 43.184 74.3123 43.472C74.3763 43.76 74.4083 44.048 74.4083 44.336C74.4083 44.976 74.3923 45.6 74.3603 46.208C74.3283 46.816 74.3123 47.392 74.3123 47.936C74.3123 48.3307 74.3283 48.704 74.3603 49.056C74.3923 49.408 74.4509 49.7333 74.5363 50.032H73.5923L73.2563 48.912H73.1763C73.0803 49.0613 72.9576 49.2107 72.8083 49.36C72.6696 49.4987 72.4989 49.6267 72.2963 49.744C72.0936 49.8507 71.8589 49.9413 71.5923 50.016C71.3256 50.0907 71.0216 50.128 70.6803 50.128C70.3389 50.128 70.0189 50.0747 69.7203 49.968C69.4323 49.8613 69.1816 49.712 68.9683 49.52C68.7549 49.3173 68.5843 49.0773 68.4563 48.8C68.3389 48.5227 68.2803 48.208 68.2803 47.856C68.2803 47.3867 68.3763 46.9973 68.5683 46.688C68.7603 46.368 69.0269 46.1173 69.3683 45.936C69.7203 45.744 70.1363 45.6107 70.6163 45.536C71.1069 45.4507 71.6456 45.408 72.2323 45.408C72.3816 45.408 72.5256 45.408 72.6643 45.408C72.8136 45.408 72.9629 45.4187 73.1123 45.44C73.1443 45.12 73.1603 44.832 73.1603 44.576C73.1603 43.9893 73.0429 43.5787 72.8083 43.344C72.5736 43.1093 72.1469 42.992 71.5283 42.992C71.3469 42.992 71.1496 43.008 70.9363 43.04C70.7336 43.0613 70.5203 43.0987 70.2963 43.152C70.0829 43.1947 69.8749 43.2533 69.6723 43.328C69.4803 43.392 69.3096 43.4667 69.1603 43.552L68.7603 42.592ZM71.0323 49.008C71.3309 49.008 71.5976 48.9707 71.8323 48.896C72.0669 48.8107 72.2696 48.7093 72.4403 48.592C72.6109 48.464 72.7496 48.3253 72.8563 48.176C72.9736 48.0267 73.0589 47.8827 73.1123 47.744V46.416C72.9629 46.4053 72.8083 46.4 72.6483 46.4C72.4989 46.3893 72.3496 46.384 72.2003 46.384C71.8696 46.384 71.5443 46.4053 71.2243 46.448C70.9149 46.48 70.6376 46.5493 70.3923 46.656C70.1576 46.752 69.9656 46.8907 69.8163 47.072C69.6776 47.2427 69.6083 47.4613 69.6083 47.728C69.6083 48.1013 69.7416 48.4107 70.0082 48.656C70.2749 48.8907 70.6163 49.008 71.0323 49.008ZM79.4338 46.464L77.0818 50H75.6098L78.1378 46.336L78.6818 45.856L77.8658 45.248L75.7858 42H77.1458L79.3538 45.456H80.1858V42H81.4338V45.616L82.1858 45.392L84.4097 42H85.7538L83.5778 45.248L82.9538 45.76L83.7698 46.4L86.1378 50H84.6178L82.2658 46.4H81.4338V50H80.1858V46.24L79.4338 46.464ZM92.3646 45.264L92.4126 44.272H92.3646L91.7086 45.296L88.1086 50H87.3726V42H88.6526V46.88L88.6046 47.824H88.6686L89.2926 46.832L92.8926 42H93.6446V50H92.3646V45.264ZM101.195 43.12H98.699V50H97.419V43.12H94.923V42H101.195V43.12ZM108.056 49.36C107.736 49.616 107.331 49.8187 106.84 49.968C106.36 50.1173 105.848 50.192 105.304 50.192C104.696 50.192 104.168 50.096 103.72 49.904C103.272 49.7013 102.904 49.4187 102.616 49.056C102.328 48.6827 102.115 48.24 101.976 47.728C101.838 47.216 101.768 46.64 101.768 46C101.768 44.6347 102.072 43.5947 102.68 42.88C103.288 42.1653 104.158 41.808 105.288 41.808C105.651 41.808 106.014 41.8507 106.376 41.936C106.739 42.0107 107.064 42.16 107.352 42.384C107.64 42.608 107.875 42.928 108.056 43.344C108.238 43.7493 108.328 44.288 108.328 44.96C108.328 45.312 108.296 45.7013 108.232 46.128H103.096C103.096 46.5973 103.144 47.0133 103.24 47.376C103.336 47.7387 103.486 48.048 103.688 48.304C103.891 48.5493 104.152 48.7413 104.472 48.88C104.803 49.008 105.203 49.072 105.672 49.072C106.035 49.072 106.398 49.008 106.76 48.88C107.123 48.752 107.395 48.6027 107.576 48.432L108.056 49.36ZM105.304 42.928C104.675 42.928 104.168 43.0933 103.784 43.424C103.411 43.7547 103.187 44.32 103.112 45.12H107.08C107.08 44.3093 106.926 43.744 106.616 43.424C106.307 43.0933 105.87 42.928 105.304 42.928ZM116.623 46.4H115.887V50H114.607V42H115.887V45.616L116.575 45.392L119.135 42H120.527L118.047 45.216L117.375 45.744L118.207 46.384L120.879 50H119.295L116.623 46.4ZM121.628 46C121.628 44.6453 121.926 43.6107 122.524 42.896C123.132 42.1707 124.001 41.808 125.132 41.808C125.729 41.808 126.246 41.9093 126.684 42.112C127.132 42.304 127.5 42.5867 127.788 42.96C128.076 43.3227 128.289 43.7653 128.428 44.288C128.566 44.8 128.636 45.3707 128.636 46C128.636 47.3547 128.332 48.3947 127.724 49.12C127.126 49.8347 126.262 50.192 125.132 50.192C124.534 50.192 124.012 50.096 123.564 49.904C123.126 49.7013 122.764 49.4187 122.476 49.056C122.188 48.6827 121.974 48.24 121.836 47.728C121.697 47.2053 121.628 46.6293 121.628 46ZM122.956 46C122.956 46.4053 122.993 46.7947 123.068 47.168C123.153 47.5413 123.281 47.8667 123.452 48.144C123.622 48.4213 123.846 48.6453 124.124 48.816C124.401 48.9867 124.737 49.072 125.132 49.072C126.582 49.0827 127.308 48.0587 127.308 46C127.308 45.584 127.265 45.1893 127.18 44.816C127.105 44.4427 126.982 44.1173 126.812 43.84C126.641 43.5627 126.417 43.344 126.14 43.184C125.862 43.0133 125.526 42.928 125.132 42.928C123.681 42.9173 122.956 43.9413 122.956 46ZM134.864 43.12H132.544C132.512 43.568 132.48 44.0533 132.448 44.576C132.416 45.088 132.368 45.6053 132.304 46.128C132.24 46.64 132.155 47.136 132.048 47.616C131.941 48.0853 131.803 48.5013 131.632 48.864C131.472 49.2267 131.269 49.52 131.024 49.744C130.789 49.9573 130.507 50.064 130.176 50.064C129.973 50.064 129.797 50.0533 129.648 50.032C129.499 50.0107 129.365 49.9733 129.248 49.92L129.44 48.848C129.568 48.8907 129.707 48.912 129.856 48.912C130.069 48.912 130.261 48.8213 130.432 48.64C130.603 48.4587 130.752 48.1173 130.88 47.616C131.008 47.104 131.115 46.4 131.2 45.504C131.285 44.608 131.344 43.44 131.376 42H136.144V50H134.864V43.12ZM143.599 45.264L143.647 44.272H143.599L142.943 45.296L139.343 50H138.607V42H139.887V46.88L139.839 47.824H139.903L140.527 46.832L144.127 42H144.879V50H143.599V45.264ZM148.173 42V44.176C148.173 44.464 148.189 44.7253 148.221 44.96C148.253 45.184 148.317 45.3813 148.413 45.552C148.509 45.712 148.648 45.84 148.829 45.936C149.011 46.0213 149.251 46.064 149.549 46.064C150.029 46.064 150.424 46.0107 150.733 45.904C151.043 45.7973 151.277 45.68 151.437 45.552V42H152.717V50H151.437V46.64C151.267 46.7467 151.011 46.864 150.669 46.992C150.339 47.12 149.88 47.184 149.293 47.184C148.899 47.184 148.552 47.1413 148.253 47.056C147.955 46.9707 147.704 46.8213 147.501 46.608C147.299 46.3947 147.144 46.112 147.037 45.76C146.941 45.408 146.893 44.9653 146.893 44.432V42H148.173ZM161.025 49.36C160.705 49.616 160.3 49.8187 159.809 49.968C159.329 50.1173 158.817 50.192 158.273 50.192C157.665 50.192 157.137 50.096 156.689 49.904C156.241 49.7013 155.873 49.4187 155.585 49.056C155.297 48.6827 155.084 48.24 154.945 47.728C154.806 47.216 154.737 46.64 154.737 46C154.737 44.6347 155.041 43.5947 155.649 42.88C156.257 42.1653 157.126 41.808 158.257 41.808C158.62 41.808 158.982 41.8507 159.345 41.936C159.708 42.0107 160.033 42.16 160.321 42.384C160.609 42.608 160.844 42.928 161.025 43.344C161.206 43.7493 161.297 44.288 161.297 44.96C161.297 45.312 161.265 45.7013 161.201 46.128H156.065C156.065 46.5973 156.113 47.0133 156.209 47.376C156.305 47.7387 156.454 48.048 156.657 48.304C156.86 48.5493 157.121 48.7413 157.441 48.88C157.772 49.008 158.172 49.072 158.641 49.072C159.004 49.072 159.366 49.008 159.729 48.88C160.092 48.752 160.364 48.6027 160.545 48.432L161.025 49.36ZM158.273 42.928C157.644 42.928 157.137 43.0933 156.753 43.424C156.38 43.7547 156.156 44.32 156.081 45.12H160.049C160.049 44.3093 159.894 43.744 159.585 43.424C159.276 43.0933 158.838 42.928 158.273 42.928ZM168.594 49.472C168.274 49.7067 167.896 49.8827 167.458 50C167.021 50.128 166.562 50.192 166.082 50.192C165.464 50.192 164.941 50.096 164.514 49.904C164.088 49.7013 163.736 49.4187 163.458 49.056C163.192 48.6827 162.994 48.24 162.866 47.728C162.749 47.2053 162.69 46.6293 162.69 46C162.69 44.6453 162.989 43.6107 163.586 42.896C164.184 42.1707 165.042 41.808 166.162 41.808C166.674 41.808 167.106 41.8507 167.458 41.936C167.821 42.0107 168.146 42.1227 168.434 42.272L168.066 43.376C167.821 43.2373 167.549 43.1307 167.25 43.056C166.952 42.9707 166.632 42.928 166.29 42.928C164.776 42.928 164.018 43.952 164.018 46C164.018 46.4053 164.056 46.7947 164.13 47.168C164.216 47.5307 164.349 47.856 164.53 48.144C164.722 48.4213 164.968 48.6453 165.266 48.816C165.576 48.9867 165.954 49.072 166.402 49.072C166.786 49.072 167.128 49.0133 167.426 48.896C167.736 48.7787 167.986 48.6453 168.178 48.496L168.594 49.472ZM175.195 43.12H172.699V50H171.419V43.12H168.923V42H175.195V43.12ZM176.466 42.016C176.84 41.9947 177.229 41.968 177.634 41.936C178.05 41.904 178.562 41.888 179.17 41.888C180.226 41.888 180.984 42.0533 181.442 42.384C181.901 42.704 182.13 43.1947 182.13 43.856C182.13 44.2293 182.018 44.5973 181.794 44.96C181.581 45.312 181.224 45.5733 180.722 45.744V45.808C181.352 45.9253 181.794 46.144 182.05 46.464C182.306 46.784 182.434 47.2107 182.434 47.744C182.434 48.576 182.136 49.1787 181.538 49.552C180.941 49.9253 180.045 50.112 178.85 50.112C178.402 50.112 177.986 50.096 177.602 50.064C177.218 50.0427 176.84 50.016 176.466 49.984V42.016ZM177.746 48.928C177.949 48.9493 178.146 48.9653 178.338 48.976C178.541 48.9867 178.776 48.992 179.042 48.992C179.757 48.992 180.285 48.8907 180.626 48.688C180.978 48.4853 181.154 48.1387 181.154 47.648C181.154 47.264 181.005 46.9547 180.706 46.72C180.418 46.4747 179.901 46.352 179.154 46.352H177.746V48.928ZM179.314 45.376C179.506 45.376 179.693 45.344 179.874 45.28C180.056 45.216 180.216 45.1307 180.354 45.024C180.504 44.9067 180.621 44.7733 180.706 44.624C180.802 44.4747 180.85 44.3147 180.85 44.144C180.85 43.7173 180.722 43.424 180.466 43.264C180.21 43.0933 179.762 43.008 179.122 43.008C178.781 43.008 178.509 43.0133 178.306 43.024C178.114 43.0347 177.928 43.0453 177.746 43.056V45.376H179.314ZM184.003 46C184.003 44.6453 184.301 43.6107 184.899 42.896C185.507 42.1707 186.376 41.808 187.507 41.808C188.104 41.808 188.621 41.9093 189.059 42.112C189.507 42.304 189.875 42.5867 190.163 42.96C190.451 43.3227 190.664 43.7653 190.803 44.288C190.941 44.8 191.011 45.3707 191.011 46C191.011 47.3547 190.707 48.3947 190.099 49.12C189.501 49.8347 188.637 50.192 187.507 50.192C186.909 50.192 186.387 50.096 185.939 49.904C185.501 49.7013 185.139 49.4187 184.851 49.056C184.563 48.6827 184.349 48.24 184.211 47.728C184.072 47.2053 184.003 46.6293 184.003 46ZM185.331 46C185.331 46.4053 185.368 46.7947 185.443 47.168C185.528 47.5413 185.656 47.8667 185.827 48.144C185.997 48.4213 186.221 48.6453 186.499 48.816C186.776 48.9867 187.112 49.072 187.507 49.072C188.957 49.0827 189.683 48.0587 189.683 46C189.683 45.584 189.64 45.1893 189.555 44.816C189.48 44.4427 189.357 44.1173 189.187 43.84C189.016 43.5627 188.792 43.344 188.515 43.184C188.237 43.0133 187.901 42.928 187.507 42.928C186.056 42.9173 185.331 43.9413 185.331 46ZM203.96 52.032H203.096L202.856 50H196.84L196.6 52.032H195.736V48.88H196.68C196.766 48.7627 196.878 48.5547 197.016 48.256C197.155 47.9467 197.288 47.52 197.416 46.976C197.555 46.4213 197.672 45.7387 197.768 44.928C197.875 44.1067 197.939 43.1307 197.96 42H202.792V48.88H203.96V52.032ZM201.512 48.88V43.12H199.112C199.091 43.568 199.054 44.0587 199 44.592C198.947 45.1147 198.872 45.6427 198.776 46.176C198.691 46.6987 198.579 47.1947 198.44 47.664C198.302 48.1333 198.142 48.5387 197.96 48.88H201.512ZM211.385 49.36C211.065 49.616 210.659 49.8187 210.169 49.968C209.689 50.1173 209.177 50.192 208.633 50.192C208.025 50.192 207.497 50.096 207.049 49.904C206.601 49.7013 206.233 49.4187 205.945 49.056C205.657 48.6827 205.443 48.24 205.305 47.728C205.166 47.216 205.097 46.64 205.097 46C205.097 44.6347 205.401 43.5947 206.009 42.88C206.617 42.1653 207.486 41.808 208.617 41.808C208.979 41.808 209.342 41.8507 209.705 41.936C210.067 42.0107 210.393 42.16 210.681 42.384C210.969 42.608 211.203 42.928 211.385 43.344C211.566 43.7493 211.657 44.288 211.657 44.96C211.657 45.312 211.625 45.7013 211.561 46.128H206.424C206.424 46.5973 206.473 47.0133 206.569 47.376C206.665 47.7387 206.814 48.048 207.017 48.304C207.219 48.5493 207.481 48.7413 207.801 48.88C208.131 49.008 208.531 49.072 209.001 49.072C209.363 49.072 209.726 49.008 210.089 48.88C210.451 48.752 210.723 48.6027 210.905 48.432L211.385 49.36ZM208.633 42.928C208.003 42.928 207.497 43.0933 207.113 43.424C206.739 43.7547 206.515 44.32 206.441 45.12H210.409C210.409 44.3093 210.254 43.744 209.945 43.424C209.635 43.0933 209.198 42.928 208.633 42.928ZM218.758 43.12H216.262V50H214.982V43.12H212.486V42H218.758V43.12ZM225.619 49.36C225.299 49.616 224.894 49.8187 224.403 49.968C223.923 50.1173 223.411 50.192 222.867 50.192C222.259 50.192 221.731 50.096 221.283 49.904C220.835 49.7013 220.467 49.4187 220.179 49.056C219.891 48.6827 219.678 48.24 219.539 47.728C219.4 47.216 219.331 46.64 219.331 46C219.331 44.6347 219.635 43.5947 220.243 42.88C220.851 42.1653 221.72 41.808 222.851 41.808C223.214 41.808 223.576 41.8507 223.939 41.936C224.302 42.0107 224.627 42.16 224.915 42.384C225.203 42.608 225.438 42.928 225.619 43.344C225.8 43.7493 225.891 44.288 225.891 44.96C225.891 45.312 225.859 45.7013 225.795 46.128H220.659C220.659 46.5973 220.707 47.0133 220.803 47.376C220.899 47.7387 221.048 48.048 221.251 48.304C221.454 48.5493 221.715 48.7413 222.035 48.88C222.366 49.008 222.766 49.072 223.235 49.072C223.598 49.072 223.96 49.008 224.323 48.88C224.686 48.752 224.958 48.6027 225.139 48.432L225.619 49.36ZM222.867 42.928C222.238 42.928 221.731 43.0933 221.347 43.424C220.974 43.7547 220.75 44.32 220.675 45.12H224.643C224.643 44.3093 224.488 43.744 224.179 43.424C223.87 43.0933 223.432 42.928 222.867 42.928ZM232.896 45.264L232.944 44.272H232.896L232.24 45.296L228.64 50H227.904V42H229.184V46.88L229.136 47.824H229.2L229.824 46.832L233.424 42H234.176V50H232.896V45.264ZM229.744 38.768C229.851 39.2587 230.032 39.6 230.288 39.792C230.555 39.984 230.859 40.08 231.2 40.08C231.541 40.08 231.845 39.9787 232.112 39.776C232.379 39.5733 232.56 39.2427 232.656 38.784L233.616 39.088C233.52 39.7067 233.243 40.1813 232.784 40.512C232.336 40.8427 231.797 41.008 231.168 41.008C230.88 41.008 230.592 40.9707 230.304 40.896C230.027 40.8213 229.776 40.7093 229.552 40.56C229.328 40.4107 229.136 40.2187 228.976 39.984C228.816 39.7493 228.709 39.472 228.656 39.152L229.744 38.768ZM236.19 49.312C236.19 49.056 236.276 48.848 236.446 48.688C236.617 48.528 236.836 48.448 237.102 48.448C237.433 48.448 237.7 48.5653 237.902 48.8C238.116 49.0347 238.222 49.376 238.222 49.824C238.222 50.208 238.169 50.544 238.062 50.832C237.956 51.12 237.817 51.3653 237.646 51.568C237.476 51.7813 237.289 51.952 237.086 52.08C236.884 52.2187 236.681 52.32 236.478 52.384L236.078 51.76C236.462 51.6107 236.745 51.376 236.926 51.056C237.118 50.7467 237.214 50.432 237.214 50.112C237.118 50.144 237.028 50.16 236.942 50.16C236.729 50.16 236.548 50.0907 236.398 49.952C236.26 49.8027 236.19 49.5893 236.19 49.312ZM55.248 66.4H54.512V70H53.232V62H54.512V65.616L55.2 65.392L57.76 62H59.152L56.672 65.216L56 65.744L56.832 66.384L59.504 70H57.92L55.248 66.4ZM60.2528 66C60.2528 64.6453 60.5514 63.6107 61.1488 62.896C61.7568 62.1707 62.6261 61.808 63.7568 61.808C64.3541 61.808 64.8714 61.9093 65.3088 62.112C65.7568 62.304 66.1248 62.5867 66.4128 62.96C66.7008 63.3227 66.9141 63.7653 67.0528 64.288C67.1914 64.8 67.2608 65.3707 67.2608 66C67.2608 67.3547 66.9568 68.3947 66.3488 69.12C65.7514 69.8347 64.8874 70.192 63.7568 70.192C63.1594 70.192 62.6368 70.096 62.1888 69.904C61.7514 69.7013 61.3888 69.4187 61.1008 69.056C60.8128 68.6827 60.5994 68.24 60.4608 67.728C60.3221 67.2053 60.2528 66.6293 60.2528 66ZM61.5807 66C61.5807 66.4053 61.6181 66.7947 61.6928 67.168C61.7781 67.5413 61.9061 67.8667 62.0768 68.144C62.2474 68.4213 62.4714 68.6453 62.7488 68.816C63.0261 68.9867 63.3621 69.072 63.7568 69.072C65.2074 69.0827 65.9328 68.0587 65.9328 66C65.9328 65.584 65.8901 65.1893 65.8048 64.816C65.7301 64.4427 65.6074 64.1173 65.4368 63.84C65.2661 63.5627 65.0421 63.344 64.7648 63.184C64.4874 63.0133 64.1514 62.928 63.7568 62.928C62.3061 62.9173 61.5807 63.9413 61.5807 66ZM74.1169 63.12H71.6209V70H70.3409V63.12H67.8449V62H74.1169V63.12ZM74.6903 66C74.6903 64.6453 74.9889 63.6107 75.5863 62.896C76.1943 62.1707 77.0636 61.808 78.1943 61.808C78.7916 61.808 79.3089 61.9093 79.7463 62.112C80.1943 62.304 80.5623 62.5867 80.8503 62.96C81.1383 63.3227 81.3516 63.7653 81.4903 64.288C81.6289 64.8 81.6983 65.3707 81.6983 66C81.6983 67.3547 81.3943 68.3947 80.7863 69.12C80.1889 69.8347 79.3249 70.192 78.1943 70.192C77.5969 70.192 77.0743 70.096 76.6263 69.904C76.1889 69.7013 75.8263 69.4187 75.5383 69.056C75.2503 68.6827 75.0369 68.24 74.8983 67.728C74.7596 67.2053 74.6903 66.6293 74.6903 66ZM76.0182 66C76.0182 66.4053 76.0556 66.7947 76.1303 67.168C76.2156 67.5413 76.3436 67.8667 76.5143 68.144C76.6849 68.4213 76.9089 68.6453 77.1863 68.816C77.4636 68.9867 77.7996 69.072 78.1943 69.072C79.6449 69.0827 80.3703 68.0587 80.3703 66C80.3703 65.584 80.3276 65.1893 80.2423 64.816C80.1676 64.4427 80.0449 64.1173 79.8743 63.84C79.7036 63.5627 79.4796 63.344 79.2023 63.184C78.9249 63.0133 78.5889 62.928 78.1943 62.928C76.7436 62.9173 76.0182 63.9413 76.0182 66ZM83.7164 62H84.5964L84.8364 62.96H84.9004C85.1457 62.5867 85.4604 62.304 85.8444 62.112C86.239 61.9093 86.687 61.808 87.1884 61.808C88.255 61.808 89.0497 62.1227 89.5724 62.752C90.095 63.3813 90.3564 64.4107 90.3564 65.84C90.3564 66.512 90.2657 67.12 90.0844 67.664C89.9137 68.1973 89.6684 68.6507 89.3484 69.024C89.0284 69.3973 88.639 69.6853 88.1804 69.888C87.7324 70.0907 87.231 70.192 86.6764 70.192C86.2817 70.192 85.967 70.1653 85.7324 70.112C85.5084 70.0693 85.263 69.9893 84.9964 69.872V73.2H83.7164V62ZM86.9484 62.928C86.4044 62.928 85.9724 63.072 85.6524 63.36C85.343 63.6373 85.1244 64.064 84.9964 64.64V68.608C85.1884 68.7573 85.407 68.8747 85.6524 68.96C85.8977 69.0347 86.223 69.072 86.6284 69.072C87.3644 69.072 87.9457 68.8 88.3724 68.256C88.8097 67.7013 89.0284 66.8907 89.0284 65.824C89.0284 65.3867 88.991 64.992 88.9164 64.64C88.8417 64.2773 88.719 63.9733 88.5484 63.728C88.3884 63.472 88.175 63.2747 87.9084 63.136C87.6524 62.9973 87.3324 62.928 86.9484 62.928ZM93.6526 68.88C94.0473 68.944 94.426 68.976 94.7886 68.976C95.4606 68.976 95.93 68.848 96.1966 68.592C96.4633 68.3253 96.5966 67.952 96.5966 67.472C96.5966 67.0453 96.4633 66.6933 96.1966 66.416C95.9406 66.1387 95.4873 66 94.8366 66C94.6553 66 94.458 66.0053 94.2446 66.016C94.0313 66.0267 93.834 66.0587 93.6526 66.112V68.88ZM93.6526 65.056C93.9086 65.0133 94.154 64.9867 94.3886 64.976C94.6233 64.9547 94.8473 64.944 95.0606 64.944C95.6046 64.944 96.058 65.008 96.4206 65.136C96.794 65.2533 97.0926 65.4187 97.3166 65.632C97.5406 65.8453 97.6953 66.1013 97.7806 66.4C97.8766 66.688 97.9246 66.9973 97.9246 67.328C97.9246 68.2987 97.6526 69.0027 97.1086 69.44C96.5753 69.8773 95.706 70.096 94.5006 70.096C93.818 70.096 93.1086 70.064 92.3726 70V62H93.6526V65.056ZM99.1886 62H100.469V70H99.1886V62ZM108.775 69.36C108.455 69.616 108.05 69.8187 107.559 69.968C107.079 70.1173 106.567 70.192 106.023 70.192C105.415 70.192 104.887 70.096 104.439 69.904C103.991 69.7013 103.623 69.4187 103.335 69.056C103.047 68.6827 102.834 68.24 102.695 67.728C102.556 67.216 102.487 66.64 102.487 66C102.487 64.6347 102.791 63.5947 103.399 62.88C104.007 62.1653 104.876 61.808 106.007 61.808C106.37 61.808 106.732 61.8507 107.095 61.936C107.458 62.0107 107.783 62.16 108.071 62.384C108.359 62.608 108.594 62.928 108.775 63.344C108.956 63.7493 109.047 64.288 109.047 64.96C109.047 65.312 109.015 65.7013 108.951 66.128H103.815C103.815 66.5973 103.863 67.0133 103.959 67.376C104.055 67.7387 104.204 68.048 104.407 68.304C104.61 68.5493 104.871 68.7413 105.191 68.88C105.522 69.008 105.922 69.072 106.391 69.072C106.754 69.072 107.116 69.008 107.479 68.88C107.842 68.752 108.114 68.6027 108.295 68.432L108.775 69.36ZM106.023 62.928C105.394 62.928 104.887 63.0933 104.503 63.424C104.13 63.7547 103.906 64.32 103.831 65.12H107.799C107.799 64.3093 107.644 63.744 107.335 63.424C107.026 63.0933 106.588 62.928 106.023 62.928ZM116.062 63.424C116.414 62.912 116.803 62.5547 117.23 62.352C117.656 62.1387 118.19 62.032 118.83 62.032C119.811 62.032 120.563 62.352 121.086 62.992C121.619 63.632 121.886 64.576 121.886 65.824C121.886 67.264 121.576 68.352 120.958 69.088C120.35 69.824 119.496 70.192 118.398 70.192C117.224 70.192 116.344 69.7867 115.758 68.976C115.171 68.1653 114.878 66.8907 114.878 65.152C114.878 64.2347 114.92 63.4507 115.006 62.8C115.102 62.1493 115.235 61.6 115.406 61.152C115.587 60.704 115.8 60.3467 116.046 60.08C116.302 59.8133 116.584 59.6053 116.894 59.456C117.214 59.296 117.56 59.184 117.934 59.12C118.307 59.056 118.707 59.0027 119.134 58.96C119.688 58.9067 120.12 58.848 120.43 58.784C120.75 58.7093 121.006 58.5813 121.198 58.4L121.342 59.552C121.235 59.648 121.118 59.728 120.99 59.792C120.862 59.856 120.707 59.9093 120.526 59.952C120.344 59.9947 120.126 60.032 119.87 60.064C119.624 60.096 119.336 60.1227 119.006 60.144C118.547 60.176 118.142 60.2347 117.79 60.32C117.448 60.3947 117.15 60.5493 116.894 60.784C116.648 61.008 116.451 61.3333 116.302 61.76C116.163 62.176 116.067 62.7307 116.014 63.424H116.062ZM116.206 66.016C116.206 66.4213 116.248 66.8107 116.334 67.184C116.419 67.5573 116.547 67.888 116.718 68.176C116.899 68.4533 117.128 68.672 117.406 68.832C117.683 68.992 118.008 69.072 118.382 69.072C119.118 69.072 119.662 68.8107 120.014 68.288C120.376 67.7547 120.558 66.9707 120.558 65.936C120.558 65.5307 120.52 65.1573 120.446 64.816C120.371 64.4747 120.254 64.1813 120.094 63.936C119.934 63.68 119.731 63.488 119.486 63.36C119.24 63.2213 118.947 63.152 118.606 63.152C117.774 63.1413 117.166 63.3867 116.782 63.888C116.398 64.3787 116.206 65.088 116.206 66.016ZM126.068 67.184L126.516 68.72H126.596L126.948 67.168L128.5 62H129.796L127.428 69.184C127.247 69.7067 127.066 70.2133 126.884 70.704C126.714 71.1947 126.522 71.632 126.308 72.016C126.095 72.4 125.855 72.704 125.588 72.928C125.322 73.1627 125.012 73.28 124.66 73.28C124.276 73.28 123.962 73.2267 123.716 73.12L123.94 72.016C124.079 72.0693 124.212 72.096 124.34 72.096C124.639 72.096 124.927 71.936 125.204 71.616C125.482 71.3067 125.711 70.768 125.892 70L122.676 62H124.148L126.068 67.184ZM138.023 72.032H137.159L136.919 70H130.903L130.663 72.032H129.799V68.88H130.743C130.828 68.7627 130.94 68.5547 131.079 68.256C131.217 67.9467 131.351 67.52 131.479 66.976C131.617 66.4213 131.735 65.7387 131.831 64.928C131.937 64.1067 132.001 63.1307 132.023 62H136.855V68.88H138.023V72.032ZM135.575 68.88V63.12H133.175C133.153 63.568 133.116 64.0587 133.063 64.592C133.009 65.1147 132.935 65.6427 132.839 66.176C132.753 66.6987 132.641 67.1947 132.503 67.664C132.364 68.1333 132.204 68.5387 132.023 68.88H135.575ZM141.959 67.184L142.407 68.72H142.487L142.839 67.168L144.391 62H145.687L143.319 69.184C143.138 69.7067 142.956 70.2133 142.775 70.704C142.604 71.1947 142.412 71.632 142.199 72.016C141.986 72.4 141.746 72.704 141.479 72.928C141.212 73.1627 140.903 73.28 140.551 73.28C140.167 73.28 139.852 73.2267 139.607 73.12L139.831 72.016C139.97 72.0693 140.103 72.096 140.231 72.096C140.53 72.096 140.818 71.936 141.095 71.616C141.372 71.3067 141.602 70.768 141.783 70L138.567 62H140.039L141.959 67.184ZM152.148 63.12H149.652V70H148.372V63.12H145.876V62H152.148V63.12ZM162.641 69.472C162.321 69.7067 161.942 69.8827 161.505 70C161.068 70.128 160.609 70.192 160.129 70.192C159.51 70.192 158.988 70.096 158.561 69.904C158.134 69.7013 157.782 69.4187 157.505 69.056C157.238 68.6827 157.041 68.24 156.913 67.728C156.796 67.2053 156.737 66.6293 156.737 66C156.737 64.6453 157.036 63.6107 157.633 62.896C158.23 62.1707 159.089 61.808 160.209 61.808C160.721 61.808 161.153 61.8507 161.505 61.936C161.868 62.0107 162.193 62.1227 162.481 62.272L162.113 63.376C161.868 63.2373 161.596 63.1307 161.297 63.056C160.998 62.9707 160.678 62.928 160.337 62.928C158.822 62.928 158.065 63.952 158.065 66C158.065 66.4053 158.102 66.7947 158.177 67.168C158.262 67.5307 158.396 67.856 158.577 68.144C158.769 68.4213 159.014 68.6453 159.313 68.816C159.622 68.9867 160.001 69.072 160.449 69.072C160.833 69.072 161.174 69.0133 161.473 68.896C161.782 68.7787 162.033 68.6453 162.225 68.496L162.641 69.472ZM168.67 62.016C169.043 61.9947 169.432 61.968 169.838 61.936C170.254 61.904 170.766 61.888 171.374 61.888C172.43 61.888 173.187 62.0533 173.646 62.384C174.104 62.704 174.334 63.1947 174.334 63.856C174.334 64.2293 174.222 64.5973 173.998 64.96C173.784 65.312 173.427 65.5733 172.926 65.744V65.808C173.555 65.9253 173.998 66.144 174.254 66.464C174.51 66.784 174.638 67.2107 174.638 67.744C174.638 68.576 174.339 69.1787 173.742 69.552C173.144 69.9253 172.248 70.112 171.054 70.112C170.606 70.112 170.19 70.096 169.806 70.064C169.422 70.0427 169.043 70.016 168.67 69.984V62.016ZM169.95 68.928C170.152 68.9493 170.35 68.9653 170.542 68.976C170.744 68.9867 170.979 68.992 171.246 68.992C171.96 68.992 172.488 68.8907 172.83 68.688C173.182 68.4853 173.358 68.1387 173.358 67.648C173.358 67.264 173.208 66.9547 172.91 66.72C172.622 66.4747 172.104 66.352 171.358 66.352H169.95V68.928ZM171.518 65.376C171.71 65.376 171.896 65.344 172.078 65.28C172.259 65.216 172.419 65.1307 172.558 65.024C172.707 64.9067 172.824 64.7733 172.91 64.624C173.006 64.4747 173.054 64.3147 173.054 64.144C173.054 63.7173 172.926 63.424 172.67 63.264C172.414 63.0933 171.966 63.008 171.326 63.008C170.984 63.008 170.712 63.0133 170.51 63.024C170.318 63.0347 170.131 63.0453 169.95 63.056V65.376H171.518ZM176.526 62.592C176.931 62.3467 177.401 62.1653 177.934 62.048C178.478 61.9307 179.043 61.872 179.63 61.872C180.185 61.872 180.627 61.9467 180.958 62.096C181.299 62.2453 181.555 62.4427 181.726 62.688C181.907 62.9227 182.025 63.184 182.078 63.472C182.142 63.76 182.174 64.048 182.174 64.336C182.174 64.976 182.158 65.6 182.126 66.208C182.094 66.816 182.078 67.392 182.078 67.936C182.078 68.3307 182.094 68.704 182.126 69.056C182.158 69.408 182.217 69.7333 182.302 70.032H181.358L181.022 68.912H180.942C180.846 69.0613 180.723 69.2107 180.574 69.36C180.435 69.4987 180.265 69.6267 180.062 69.744C179.859 69.8507 179.625 69.9413 179.358 70.016C179.091 70.0907 178.787 70.128 178.446 70.128C178.105 70.128 177.785 70.0747 177.486 69.968C177.198 69.8613 176.947 69.712 176.734 69.52C176.521 69.3173 176.35 69.0773 176.222 68.8C176.105 68.5227 176.046 68.208 176.046 67.856C176.046 67.3867 176.142 66.9973 176.334 66.688C176.526 66.368 176.793 66.1173 177.134 65.936C177.486 65.744 177.902 65.6107 178.382 65.536C178.873 65.4507 179.411 65.408 179.998 65.408C180.147 65.408 180.291 65.408 180.43 65.408C180.579 65.408 180.729 65.4187 180.878 65.44C180.91 65.12 180.926 64.832 180.926 64.576C180.926 63.9893 180.809 63.5787 180.574 63.344C180.339 63.1093 179.913 62.992 179.294 62.992C179.113 62.992 178.915 63.008 178.702 63.04C178.499 63.0613 178.286 63.0987 178.062 63.152C177.849 63.1947 177.641 63.2533 177.438 63.328C177.246 63.392 177.075 63.4667 176.926 63.552L176.526 62.592ZM178.798 69.008C179.097 69.008 179.363 68.9707 179.598 68.896C179.833 68.8107 180.035 68.7093 180.206 68.592C180.377 68.464 180.515 68.3253 180.622 68.176C180.739 68.0267 180.825 67.8827 180.878 67.744V66.416C180.729 66.4053 180.574 66.4 180.414 66.4C180.265 66.3893 180.115 66.384 179.966 66.384C179.635 66.384 179.31 66.4053 178.99 66.448C178.681 66.48 178.403 66.5493 178.158 66.656C177.923 66.752 177.731 66.8907 177.582 67.072C177.443 67.2427 177.374 67.4613 177.374 67.728C177.374 68.1013 177.507 68.4107 177.774 68.656C178.041 68.8907 178.382 69.008 178.798 69.008ZM191.199 65.248L191.295 63.728H191.215L190.639 64.96L188.703 68.096H188.255L186.239 64.96L185.711 63.728H185.647L185.775 65.232V70H184.591V62H185.855L188.095 65.584L188.559 66.512H188.591L189.071 65.552L191.167 62H192.447V70H191.199V65.248ZM199.896 65.264L199.944 64.272H199.896L199.24 65.296L195.64 70H194.904V62H196.184V66.88L196.136 67.824H196.2L196.824 66.832L200.424 62H201.176V70H199.896V65.264ZM203.19 69.312C203.19 69.056 203.276 68.848 203.446 68.688C203.617 68.528 203.836 68.448 204.102 68.448C204.433 68.448 204.7 68.5653 204.902 68.8C205.116 69.0347 205.222 69.376 205.222 69.824C205.222 70.208 205.169 70.544 205.062 70.832C204.956 71.12 204.817 71.3653 204.646 71.568C204.476 71.7813 204.289 71.952 204.086 72.08C203.884 72.2187 203.681 72.32 203.478 72.384L203.078 71.76C203.462 71.6107 203.745 71.376 203.926 71.056C204.118 70.7467 204.214 70.432 204.214 70.112C204.118 70.144 204.028 70.16 203.942 70.16C203.729 70.16 203.548 70.0907 203.398 69.952C203.26 69.8027 203.19 69.5893 203.19 69.312ZM209.779 62.016C210.152 61.9947 210.542 61.968 210.947 61.936C211.363 61.904 211.875 61.888 212.483 61.888C213.539 61.888 214.296 62.0533 214.755 62.384C215.214 62.704 215.443 63.1947 215.443 63.856C215.443 64.2293 215.331 64.5973 215.107 64.96C214.894 65.312 214.536 65.5733 214.035 65.744V65.808C214.664 65.9253 215.107 66.144 215.363 66.464C215.619 66.784 215.747 67.2107 215.747 67.744C215.747 68.576 215.448 69.1787 214.851 69.552C214.254 69.9253 213.358 70.112 212.163 70.112C211.715 70.112 211.299 70.096 210.915 70.064C210.531 70.0427 210.152 70.016 209.779 69.984V62.016ZM211.059 68.928C211.262 68.9493 211.459 68.9653 211.651 68.976C211.854 68.9867 212.088 68.992 212.355 68.992C213.07 68.992 213.598 68.8907 213.939 68.688C214.291 68.4853 214.467 68.1387 214.467 67.648C214.467 67.264 214.318 66.9547 214.019 66.72C213.731 66.4747 213.214 66.352 212.467 66.352H211.059V68.928ZM212.627 65.376C212.819 65.376 213.006 65.344 213.187 65.28C213.368 65.216 213.528 65.1307 213.667 65.024C213.816 64.9067 213.934 64.7733 214.019 64.624C214.115 64.4747 214.163 64.3147 214.163 64.144C214.163 63.7173 214.035 63.424 213.779 63.264C213.523 63.0933 213.075 63.008 212.435 63.008C212.094 63.008 211.822 63.0133 211.619 63.024C211.427 63.0347 211.24 63.0453 211.059 63.056V65.376H212.627ZM217.315 66C217.315 64.6453 217.614 63.6107 218.211 62.896C218.819 62.1707 219.689 61.808 220.819 61.808C221.417 61.808 221.934 61.9093 222.371 62.112C222.819 62.304 223.187 62.5867 223.475 62.96C223.763 63.3227 223.977 63.7653 224.115 64.288C224.254 64.8 224.323 65.3707 224.323 66C224.323 67.3547 224.019 68.3947 223.411 69.12C222.814 69.8347 221.95 70.192 220.819 70.192C220.222 70.192 219.699 70.096 219.251 69.904C218.814 69.7013 218.451 69.4187 218.163 69.056C217.875 68.6827 217.662 68.24 217.523 67.728C217.385 67.2053 217.315 66.6293 217.315 66ZM218.643 66C218.643 66.4053 218.681 66.7947 218.755 67.168C218.841 67.5413 218.969 67.8667 219.139 68.144C219.31 68.4213 219.534 68.6453 219.811 68.816C220.089 68.9867 220.425 69.072 220.819 69.072C222.27 69.0827 222.995 68.0587 222.995 66C222.995 65.584 222.953 65.1893 222.867 64.816C222.793 64.4427 222.67 64.1173 222.499 63.84C222.329 63.5627 222.105 63.344 221.827 63.184C221.55 63.0133 221.214 62.928 220.819 62.928C219.369 62.9173 218.643 63.9413 218.643 66ZM227.109 66.432V65.392H228.229C228.421 65.392 228.608 65.36 228.789 65.296C228.981 65.232 229.152 65.1467 229.301 65.04C229.451 64.9227 229.568 64.7893 229.653 64.64C229.749 64.48 229.797 64.3147 229.797 64.144C229.797 63.728 229.653 63.4347 229.365 63.264C229.077 63.0933 228.645 63.008 228.069 63.008C227.653 63.008 227.269 63.072 226.917 63.2C226.576 63.328 226.309 63.4507 226.117 63.568L225.749 62.576C226.069 62.3947 226.443 62.2347 226.869 62.096C227.307 61.9573 227.824 61.888 228.421 61.888C230.192 61.888 231.077 62.544 231.077 63.856C231.077 64.2293 230.955 64.5973 230.709 64.96C230.475 65.312 230.133 65.5627 229.685 65.712V65.776C230.315 65.8933 230.752 66.1173 230.997 66.448C231.253 66.7787 231.381 67.216 231.381 67.76C231.381 68.1013 231.312 68.416 231.173 68.704C231.035 68.992 230.827 69.2427 230.549 69.456C230.272 69.6693 229.92 69.84 229.493 69.968C229.077 70.0853 228.592 70.144 228.037 70.144C227.493 70.144 227.04 70.096 226.677 70C226.325 69.904 226.005 69.7867 225.717 69.648L226.085 68.592C226.331 68.7307 226.624 68.8373 226.965 68.912C227.317 68.9867 227.696 69.024 228.101 69.024C228.752 69.024 229.248 68.912 229.589 68.688C229.931 68.464 230.101 68.1227 230.101 67.664C230.101 67.28 229.941 66.9813 229.621 66.768C229.301 66.544 228.773 66.432 228.037 66.432H227.109ZM233.404 62H234.284L234.524 62.96H234.588C234.833 62.5867 235.148 62.304 235.532 62.112C235.927 61.9093 236.375 61.808 236.876 61.808C237.943 61.808 238.737 62.1227 239.26 62.752C239.783 63.3813 240.044 64.4107 240.044 65.84C240.044 66.512 239.953 67.12 239.772 67.664C239.601 68.1973 239.356 68.6507 239.036 69.024C238.716 69.3973 238.327 69.6853 237.868 69.888C237.42 70.0907 236.919 70.192 236.364 70.192C235.969 70.192 235.655 70.1653 235.42 70.112C235.196 70.0693 234.951 69.9893 234.684 69.872V73.2H233.404V62ZM236.636 62.928C236.092 62.928 235.66 63.072 235.34 63.36C235.031 63.6373 234.812 64.064 234.684 64.64V68.608C234.876 68.7573 235.095 68.8747 235.34 68.96C235.585 69.0347 235.911 69.072 236.316 69.072C237.052 69.072 237.633 68.8 238.06 68.256C238.497 67.7013 238.716 66.8907 238.716 65.824C238.716 65.3867 238.679 64.992 238.604 64.64C238.529 64.2773 238.407 63.9733 238.236 63.728C238.076 63.472 237.863 63.2747 237.596 63.136C237.34 62.9973 237.02 62.928 236.636 62.928ZM241.932 62.592C242.337 62.3467 242.807 62.1653 243.34 62.048C243.884 61.9307 244.449 61.872 245.036 61.872C245.591 61.872 246.033 61.9467 246.364 62.096C246.705 62.2453 246.961 62.4427 247.132 62.688C247.313 62.9227 247.431 63.184 247.484 63.472C247.548 63.76 247.58 64.048 247.58 64.336C247.58 64.976 247.564 65.6 247.532 66.208C247.5 66.816 247.484 67.392 247.484 67.936C247.484 68.3307 247.5 68.704 247.532 69.056C247.564 69.408 247.623 69.7333 247.708 70.032H246.764L246.428 68.912H246.348C246.252 69.0613 246.129 69.2107 245.98 69.36C245.841 69.4987 245.671 69.6267 245.468 69.744C245.265 69.8507 245.031 69.9413 244.764 70.016C244.497 70.0907 244.193 70.128 243.852 70.128C243.511 70.128 243.191 70.0747 242.892 69.968C242.604 69.8613 242.353 69.712 242.14 69.52C241.927 69.3173 241.756 69.0773 241.628 68.8C241.511 68.5227 241.452 68.208 241.452 67.856C241.452 67.3867 241.548 66.9973 241.74 66.688C241.932 66.368 242.199 66.1173 242.54 65.936C242.892 65.744 243.308 65.6107 243.788 65.536C244.279 65.4507 244.817 65.408 245.404 65.408C245.553 65.408 245.697 65.408 245.836 65.408C245.985 65.408 246.135 65.4187 246.284 65.44C246.316 65.12 246.332 64.832 246.332 64.576C246.332 63.9893 246.215 63.5787 245.98 63.344C245.745 63.1093 245.319 62.992 244.7 62.992C244.519 62.992 244.321 63.008 244.108 63.04C243.905 63.0613 243.692 63.0987 243.468 63.152C243.255 63.1947 243.047 63.2533 242.844 63.328C242.652 63.392 242.481 63.4667 242.332 63.552L241.932 62.592ZM244.204 69.008C244.503 69.008 244.769 68.9707 245.004 68.896C245.239 68.8107 245.441 68.7093 245.612 68.592C245.783 68.464 245.921 68.3253 246.028 68.176C246.145 68.0267 246.231 67.8827 246.284 67.744V66.416C246.135 66.4053 245.98 66.4 245.82 66.4C245.671 66.3893 245.521 66.384 245.372 66.384C245.041 66.384 244.716 66.4053 244.396 66.448C244.087 66.48 243.809 66.5493 243.564 66.656C243.329 66.752 243.137 66.8907 242.988 67.072C242.849 67.2427 242.78 67.4613 242.78 67.728C242.78 68.1013 242.913 68.4107 243.18 68.656C243.447 68.8907 243.788 69.008 244.204 69.008ZM255.454 69.472C255.134 69.7067 254.755 69.8827 254.318 70C253.88 70.128 253.422 70.192 252.942 70.192C252.323 70.192 251.8 70.096 251.374 69.904C250.947 69.7013 250.595 69.4187 250.318 69.056C250.051 68.6827 249.854 68.24 249.726 67.728C249.608 67.2053 249.55 66.6293 249.55 66C249.55 64.6453 249.848 63.6107 250.446 62.896C251.043 62.1707 251.902 61.808 253.022 61.808C253.534 61.808 253.966 61.8507 254.318 61.936C254.68 62.0107 255.006 62.1227 255.294 62.272L254.926 63.376C254.68 63.2373 254.408 63.1307 254.11 63.056C253.811 62.9707 253.491 62.928 253.15 62.928C251.635 62.928 250.878 63.952 250.878 66C250.878 66.4053 250.915 66.7947 250.99 67.168C251.075 67.5307 251.208 67.856 251.39 68.144C251.582 68.4213 251.827 68.6453 252.126 68.816C252.435 68.9867 252.814 69.072 253.262 69.072C253.646 69.072 253.987 69.0133 254.286 68.896C254.595 68.7787 254.846 68.6453 255.038 68.496L255.454 69.472ZM262.054 63.12H259.558V70H258.278V63.12H255.782V62H262.054V63.12ZM55.248 86.4H54.512V90H53.232V82H54.512V85.616L55.2 85.392L57.76 82H59.152L56.672 85.216L56 85.744L56.832 86.384L59.504 90H57.92L55.248 86.4ZM60.2528 86C60.2528 84.6453 60.5514 83.6107 61.1488 82.896C61.7568 82.1707 62.6261 81.808 63.7568 81.808C64.3541 81.808 64.8714 81.9093 65.3088 82.112C65.7568 82.304 66.1248 82.5867 66.4128 82.96C66.7008 83.3227 66.9141 83.7653 67.0528 84.288C67.1914 84.8 67.2608 85.3707 67.2608 86C67.2608 87.3547 66.9568 88.3947 66.3488 89.12C65.7514 89.8347 64.8874 90.192 63.7568 90.192C63.1594 90.192 62.6368 90.096 62.1888 89.904C61.7514 89.7013 61.3888 89.4187 61.1008 89.056C60.8128 88.6827 60.5994 88.24 60.4608 87.728C60.3221 87.2053 60.2528 86.6293 60.2528 86ZM61.5807 86C61.5807 86.4053 61.6181 86.7947 61.6928 87.168C61.7781 87.5413 61.9061 87.8667 62.0768 88.144C62.2474 88.4213 62.4714 88.6453 62.7488 88.816C63.0261 88.9867 63.3621 89.072 63.7568 89.072C65.2074 89.0827 65.9328 88.0587 65.9328 86C65.9328 85.584 65.8901 85.1893 65.8048 84.816C65.7301 84.4427 65.6074 84.1173 65.4368 83.84C65.2661 83.5627 65.0421 83.344 64.7648 83.184C64.4874 83.0133 64.1514 82.928 63.7568 82.928C62.3061 82.9173 61.5807 83.9413 61.5807 86ZM74.1169 83.12H71.6209V90H70.3409V83.12H67.8449V82H74.1169V83.12ZM74.6903 86C74.6903 84.6453 74.9889 83.6107 75.5863 82.896C76.1943 82.1707 77.0636 81.808 78.1943 81.808C78.7916 81.808 79.3089 81.9093 79.7463 82.112C80.1943 82.304 80.5623 82.5867 80.8503 82.96C81.1383 83.3227 81.3516 83.7653 81.4903 84.288C81.6289 84.8 81.6983 85.3707 81.6983 86C81.6983 87.3547 81.3943 88.3947 80.7863 89.12C80.1889 89.8347 79.3249 90.192 78.1943 90.192C77.5969 90.192 77.0743 90.096 76.6263 89.904C76.1889 89.7013 75.8263 89.4187 75.5383 89.056C75.2503 88.6827 75.0369 88.24 74.8983 87.728C74.7596 87.2053 74.6903 86.6293 74.6903 86ZM76.0182 86C76.0182 86.4053 76.0556 86.7947 76.1303 87.168C76.2156 87.5413 76.3436 87.8667 76.5143 88.144C76.6849 88.4213 76.9089 88.6453 77.1863 88.816C77.4636 88.9867 77.7996 89.072 78.1943 89.072C79.6449 89.0827 80.3703 88.0587 80.3703 86C80.3703 85.584 80.3276 85.1893 80.2423 84.816C80.1676 84.4427 80.0449 84.1173 79.8743 83.84C79.7036 83.5627 79.4796 83.344 79.2023 83.184C78.9249 83.0133 78.5889 82.928 78.1943 82.928C76.7436 82.9173 76.0182 83.9413 76.0182 86ZM83.7164 82H84.5964L84.8364 82.96H84.9004C85.1457 82.5867 85.4604 82.304 85.8444 82.112C86.239 81.9093 86.687 81.808 87.1884 81.808C88.255 81.808 89.0497 82.1227 89.5724 82.752C90.095 83.3813 90.3564 84.4107 90.3564 85.84C90.3564 86.512 90.2657 87.12 90.0844 87.664C89.9137 88.1973 89.6684 88.6507 89.3484 89.024C89.0284 89.3973 88.639 89.6853 88.1804 89.888C87.7324 90.0907 87.231 90.192 86.6764 90.192C86.2817 90.192 85.967 90.1653 85.7324 90.112C85.5084 90.0693 85.263 89.9893 84.9964 89.872V93.2H83.7164V82ZM86.9484 82.928C86.4044 82.928 85.9724 83.072 85.6524 83.36C85.343 83.6373 85.1244 84.064 84.9964 84.64V88.608C85.1884 88.7573 85.407 88.8747 85.6524 88.96C85.8977 89.0347 86.223 89.072 86.6284 89.072C87.3644 89.072 87.9457 88.8 88.3724 88.256C88.8097 87.7013 89.0284 86.8907 89.0284 85.824C89.0284 85.3867 88.991 84.992 88.9164 84.64C88.8417 84.2773 88.719 83.9733 88.5484 83.728C88.3884 83.472 88.175 83.2747 87.9084 83.136C87.6524 82.9973 87.3324 82.928 86.9484 82.928ZM93.6526 88.88C94.0473 88.944 94.426 88.976 94.7886 88.976C95.4606 88.976 95.93 88.848 96.1966 88.592C96.4633 88.3253 96.5966 87.952 96.5966 87.472C96.5966 87.0453 96.4633 86.6933 96.1966 86.416C95.9406 86.1387 95.4873 86 94.8366 86C94.6553 86 94.458 86.0053 94.2446 86.016C94.0313 86.0267 93.834 86.0587 93.6526 86.112V88.88ZM93.6526 85.056C93.9086 85.0133 94.154 84.9867 94.3886 84.976C94.6233 84.9547 94.8473 84.944 95.0606 84.944C95.6046 84.944 96.058 85.008 96.4206 85.136C96.794 85.2533 97.0926 85.4187 97.3166 85.632C97.5406 85.8453 97.6953 86.1013 97.7806 86.4C97.8766 86.688 97.9246 86.9973 97.9246 87.328C97.9246 88.2987 97.6526 89.0027 97.1086 89.44C96.5753 89.8773 95.706 90.096 94.5006 90.096C93.818 90.096 93.1086 90.064 92.3726 90V82H93.6526V85.056ZM99.1886 82H100.469V90H99.1886V82ZM105.031 85.904L102.343 82H103.911L105.431 84.208L105.879 85.12L106.343 84.208L107.895 82H109.335L106.631 85.84L109.495 90H107.975L106.279 87.568L105.799 86.608L105.303 87.568L103.575 90H102.151L105.031 85.904ZM114.55 86C114.55 84.6453 114.848 83.6107 115.446 82.896C116.054 82.1707 116.923 81.808 118.054 81.808C118.651 81.808 119.168 81.9093 119.606 82.112C120.054 82.304 120.422 82.5867 120.71 82.96C120.998 83.3227 121.211 83.7653 121.35 84.288C121.488 84.8 121.558 85.3707 121.558 86C121.558 87.3547 121.254 88.3947 120.646 89.12C120.048 89.8347 119.184 90.192 118.054 90.192C117.456 90.192 116.934 90.096 116.486 89.904C116.048 89.7013 115.686 89.4187 115.398 89.056C115.11 88.6827 114.896 88.24 114.758 87.728C114.619 87.2053 114.55 86.6293 114.55 86ZM115.878 86C115.878 86.4053 115.915 86.7947 115.99 87.168C116.075 87.5413 116.203 87.8667 116.374 88.144C116.544 88.4213 116.768 88.6453 117.046 88.816C117.323 88.9867 117.659 89.072 118.054 89.072C119.504 89.0827 120.23 88.0587 120.23 86C120.23 85.584 120.187 85.1893 120.102 84.816C120.027 84.4427 119.904 84.1173 119.734 83.84C119.563 83.5627 119.339 83.344 119.062 83.184C118.784 83.0133 118.448 82.928 118.054 82.928C116.603 82.9173 115.878 83.9413 115.878 86ZM128.414 83.12H125.918V90H124.638V83.12H122.142V82H128.414V83.12ZM140.091 86.624C140.091 87.1147 140.016 87.5787 139.867 88.016C139.717 88.4427 139.499 88.8213 139.211 89.152C138.923 89.472 138.565 89.728 138.139 89.92C137.712 90.1013 137.227 90.192 136.683 90.192C136.149 90.192 135.669 90.1067 135.243 89.936C134.816 89.7653 134.448 89.5147 134.139 89.184C133.829 88.8427 133.589 88.4267 133.419 87.936C133.259 87.4453 133.179 86.88 133.179 86.24C133.179 85.184 133.312 84.2133 133.579 83.328C133.856 82.432 134.235 81.6533 134.715 80.992C135.195 80.3307 135.76 79.7973 136.411 79.392C137.072 78.976 137.787 78.7147 138.555 78.608L138.827 79.632C138.229 79.7387 137.685 79.9413 137.195 80.24C136.704 80.5387 136.272 80.9067 135.899 81.344C135.536 81.7813 135.237 82.272 135.003 82.816C134.768 83.36 134.608 83.92 134.523 84.496C134.693 84.208 134.981 83.9467 135.387 83.712C135.792 83.4667 136.288 83.344 136.875 83.344C137.877 83.344 138.661 83.632 139.227 84.208C139.803 84.784 140.091 85.5893 140.091 86.624ZM138.763 86.752C138.763 85.9947 138.587 85.424 138.235 85.04C137.883 84.656 137.339 84.464 136.603 84.464C136.08 84.464 135.627 84.592 135.243 84.848C134.869 85.104 134.608 85.392 134.459 85.712C134.437 85.8613 134.427 85.984 134.427 86.08C134.427 86.176 134.427 86.2827 134.427 86.4C134.427 86.7307 134.469 87.056 134.555 87.376C134.651 87.696 134.795 87.984 134.987 88.24C135.179 88.4853 135.413 88.688 135.691 88.848C135.979 88.9973 136.315 89.072 136.699 89.072C137.008 89.072 137.285 89.0133 137.531 88.896C137.787 88.7787 138.005 88.6187 138.187 88.416C138.368 88.2133 138.507 87.968 138.603 87.68C138.709 87.392 138.763 87.0827 138.763 86.752ZM153.101 92.032H152.237L151.997 90H145.981L145.741 92.032H144.877V88.88H145.821C145.906 88.7627 146.018 88.5547 146.157 88.256C146.296 87.9467 146.429 87.52 146.557 86.976C146.696 86.4213 146.813 85.7387 146.909 84.928C147.016 84.1067 147.08 83.1307 147.101 82H151.933V88.88H153.101V92.032ZM150.653 88.88V83.12H148.253C148.232 83.568 148.194 84.0587 148.141 84.592C148.088 85.1147 148.013 85.6427 147.917 86.176C147.832 86.6987 147.72 87.1947 147.581 87.664C147.442 88.1333 147.282 88.5387 147.101 88.88H150.653ZM154.237 86C154.237 84.6453 154.536 83.6107 155.133 82.896C155.741 82.1707 156.61 81.808 157.741 81.808C158.338 81.808 158.856 81.9093 159.293 82.112C159.741 82.304 160.109 82.5867 160.397 82.96C160.685 83.3227 160.898 83.7653 161.037 84.288C161.176 84.8 161.245 85.3707 161.245 86C161.245 87.3547 160.941 88.3947 160.333 89.12C159.736 89.8347 158.872 90.192 157.741 90.192C157.144 90.192 156.621 90.096 156.173 89.904C155.736 89.7013 155.373 89.4187 155.085 89.056C154.797 88.6827 154.584 88.24 154.445 87.728C154.306 87.2053 154.237 86.6293 154.237 86ZM155.565 86C155.565 86.4053 155.602 86.7947 155.677 87.168C155.762 87.5413 155.89 87.8667 156.061 88.144C156.232 88.4213 156.456 88.6453 156.733 88.816C157.01 88.9867 157.346 89.072 157.741 89.072C159.192 89.0827 159.917 88.0587 159.917 86C159.917 85.584 159.874 85.1893 159.789 84.816C159.714 84.4427 159.592 84.1173 159.421 83.84C159.25 83.5627 159.026 83.344 158.749 83.184C158.472 83.0133 158.136 82.928 157.741 82.928C156.29 82.9173 155.565 83.9413 155.565 86ZM168.025 88.816H170.265V81.072L170.425 80.128L169.785 80.88L168.025 82.144L167.417 81.328L170.937 78.608H171.513V88.816H173.705V90H168.025V88.816ZM176.104 87.328C176.104 86.656 176.28 86.0747 176.632 85.584C176.984 85.0827 177.533 84.6293 178.28 84.224C178.013 84.064 177.762 83.8987 177.528 83.728C177.304 83.5467 177.101 83.344 176.92 83.12C176.749 82.896 176.61 82.6453 176.504 82.368C176.408 82.0907 176.36 81.7707 176.36 81.408C176.36 80.992 176.429 80.6133 176.568 80.272C176.717 79.9307 176.925 79.6373 177.192 79.392C177.469 79.1467 177.794 78.9547 178.168 78.816C178.552 78.6773 178.984 78.608 179.464 78.608C179.912 78.608 180.317 78.672 180.68 78.8C181.042 78.928 181.346 79.104 181.592 79.328C181.848 79.552 182.045 79.8187 182.184 80.128C182.322 80.4373 182.392 80.7787 182.392 81.152C182.392 81.76 182.253 82.2987 181.976 82.768C181.698 83.2267 181.24 83.68 180.6 84.128C180.877 84.288 181.138 84.464 181.384 84.656C181.64 84.848 181.858 85.0613 182.04 85.296C182.232 85.5307 182.381 85.7973 182.488 86.096C182.594 86.384 182.648 86.7147 182.648 87.088C182.648 87.5467 182.573 87.968 182.424 88.352C182.274 88.7253 182.056 89.0507 181.768 89.328C181.48 89.5947 181.128 89.808 180.712 89.968C180.296 90.1173 179.821 90.192 179.288 90.192C178.776 90.192 178.322 90.1173 177.928 89.968C177.533 89.8187 177.197 89.616 176.92 89.36C176.653 89.104 176.45 88.8053 176.312 88.464C176.173 88.112 176.104 87.7333 176.104 87.328ZM181.4 87.168C181.4 86.848 181.336 86.5707 181.208 86.336C181.08 86.0907 180.909 85.872 180.696 85.68C180.493 85.4773 180.258 85.296 179.992 85.136C179.725 84.976 179.448 84.8213 179.16 84.672C178.509 85.0347 178.045 85.44 177.768 85.888C177.49 86.336 177.352 86.7627 177.352 87.168C177.352 87.424 177.394 87.6693 177.48 87.904C177.565 88.1387 177.693 88.3413 177.864 88.512C178.034 88.6827 178.242 88.8213 178.488 88.928C178.744 89.024 179.037 89.072 179.368 89.072C179.634 89.072 179.89 89.0347 180.136 88.96C180.381 88.8747 180.594 88.7573 180.776 88.608C180.968 88.448 181.117 88.2507 181.224 88.016C181.341 87.7707 181.4 87.488 181.4 87.168ZM177.608 81.376C177.608 81.6747 177.666 81.9413 177.784 82.176C177.901 82.4 178.056 82.6027 178.248 82.784C178.45 82.9653 178.68 83.136 178.936 83.296C179.192 83.4453 179.458 83.5893 179.736 83.728C180.216 83.3547 180.568 82.9867 180.792 82.624C181.026 82.2613 181.144 81.8613 181.144 81.424C181.144 80.88 180.973 80.464 180.632 80.176C180.301 79.8773 179.901 79.728 179.432 79.728C179.144 79.728 178.888 79.776 178.664 79.872C178.44 79.968 178.248 80.0907 178.088 80.24C177.928 80.3893 177.805 80.5653 177.72 80.768C177.645 80.96 177.608 81.1627 177.608 81.376ZM193.13 83.12H190.81C190.778 83.568 190.746 84.0533 190.714 84.576C190.682 85.088 190.634 85.6053 190.57 86.128C190.506 86.64 190.42 87.136 190.314 87.616C190.207 88.0853 190.068 88.5013 189.898 88.864C189.738 89.2267 189.535 89.52 189.29 89.744C189.055 89.9573 188.772 90.064 188.442 90.064C188.239 90.064 188.063 90.0533 187.914 90.032C187.764 90.0107 187.631 89.9733 187.514 89.92L187.706 88.848C187.834 88.8907 187.972 88.912 188.122 88.912C188.335 88.912 188.527 88.8213 188.698 88.64C188.868 88.4587 189.018 88.1173 189.146 87.616C189.274 87.104 189.38 86.4 189.466 85.504C189.551 84.608 189.61 83.44 189.642 82H194.41V90H193.13V83.12ZM202.713 89.36C202.393 89.616 201.987 89.8187 201.497 89.968C201.017 90.1173 200.505 90.192 199.961 90.192C199.353 90.192 198.825 90.096 198.377 89.904C197.929 89.7013 197.561 89.4187 197.273 89.056C196.985 88.6827 196.771 88.24 196.633 87.728C196.494 87.216 196.425 86.64 196.425 86C196.425 84.6347 196.729 83.5947 197.337 82.88C197.945 82.1653 198.814 81.808 199.945 81.808C200.307 81.808 200.67 81.8507 201.033 81.936C201.395 82.0107 201.721 82.16 202.009 82.384C202.297 82.608 202.531 82.928 202.713 83.344C202.894 83.7493 202.985 84.288 202.985 84.96C202.985 85.312 202.953 85.7013 202.889 86.128H197.753C197.753 86.5973 197.801 87.0133 197.897 87.376C197.993 87.7387 198.142 88.048 198.345 88.304C198.547 88.5493 198.809 88.7413 199.129 88.88C199.459 89.008 199.859 89.072 200.329 89.072C200.691 89.072 201.054 89.008 201.417 88.88C201.779 88.752 202.051 88.6027 202.233 88.432L202.713 89.36ZM199.961 82.928C199.331 82.928 198.825 83.0933 198.441 83.424C198.067 83.7547 197.843 84.32 197.769 85.12H201.737C201.737 84.3093 201.582 83.744 201.273 83.424C200.963 83.0933 200.526 82.928 199.961 82.928ZM210.086 83.12H207.59V90H206.31V83.12H203.814V82H210.086V83.12ZM209.659 89.264C209.659 88.976 209.739 88.752 209.899 88.592C210.07 88.4213 210.294 88.336 210.571 88.336C210.859 88.336 211.088 88.4213 211.259 88.592C211.43 88.752 211.515 88.976 211.515 89.264C211.515 89.5413 211.43 89.7653 211.259 89.936C211.088 90.1067 210.859 90.192 210.571 90.192C210.294 90.192 210.07 90.1067 209.899 89.936C209.739 89.7653 209.659 89.5413 209.659 89.264ZM225.131 92.064H224.219L223.979 90H216.123L215.883 92.064H214.955V88.816H216.091C216.176 88.6987 216.304 88.4267 216.475 88C216.656 87.5627 216.832 86.944 217.003 86.144C217.184 85.3333 217.344 84.3253 217.483 83.12C217.622 81.904 217.691 80.464 217.691 78.8H223.675V88.816H225.131V92.064ZM222.347 88.816V79.984H218.939C218.907 81.1573 218.843 82.2133 218.747 83.152C218.662 84.0907 218.555 84.9227 218.427 85.648C218.299 86.3627 218.155 86.9813 217.995 87.504C217.835 88.0267 217.67 88.464 217.499 88.816H222.347ZM232.275 89.36C231.955 89.616 231.55 89.8187 231.059 89.968C230.579 90.1173 230.067 90.192 229.523 90.192C228.915 90.192 228.387 90.096 227.939 89.904C227.491 89.7013 227.123 89.4187 226.835 89.056C226.547 88.6827 226.334 88.24 226.195 87.728C226.056 87.216 225.987 86.64 225.987 86C225.987 84.6347 226.291 83.5947 226.899 82.88C227.507 82.1653 228.376 81.808 229.507 81.808C229.87 81.808 230.232 81.8507 230.595 81.936C230.958 82.0107 231.283 82.16 231.571 82.384C231.859 82.608 232.094 82.928 232.275 83.344C232.456 83.7493 232.547 84.288 232.547 84.96C232.547 85.312 232.515 85.7013 232.451 86.128H227.315C227.315 86.5973 227.363 87.0133 227.459 87.376C227.555 87.7387 227.704 88.048 227.907 88.304C228.11 88.5493 228.371 88.7413 228.691 88.88C229.022 89.008 229.422 89.072 229.891 89.072C230.254 89.072 230.616 89.008 230.979 88.88C231.342 88.752 231.614 88.6027 231.795 88.432L232.275 89.36ZM229.523 82.928C228.894 82.928 228.387 83.0933 228.003 83.424C227.63 83.7547 227.406 84.32 227.331 85.12H231.299C231.299 84.3093 231.144 83.744 230.835 83.424C230.526 83.0933 230.088 82.928 229.523 82.928ZM239.648 83.12H237.152V90H235.872V83.12H233.376V82H239.648V83.12ZM245.912 85.264L245.96 84.272H245.912L245.256 85.296L241.656 90H240.92V82H242.2V86.88L242.152 87.824H242.216L242.84 86.832L246.44 82H247.192V90H245.912V85.264ZM60.304 112.032H59.44L59.2 110H53.184L52.944 112.032H52.08V108.88H53.024C53.1093 108.763 53.2213 108.555 53.36 108.256C53.4987 107.947 53.632 107.52 53.76 106.976C53.8987 106.421 54.016 105.739 54.112 104.928C54.2187 104.107 54.2827 103.131 54.304 102H59.136V108.88H60.304V112.032ZM57.856 108.88V103.12H55.456C55.4347 103.568 55.3973 104.059 55.344 104.592C55.2907 105.115 55.216 105.643 55.12 106.176C55.0347 106.699 54.9227 107.195 54.784 107.664C54.6453 108.133 54.4853 108.539 54.304 108.88H57.856ZM61.4403 106C61.4403 104.645 61.7389 103.611 62.3363 102.896C62.9443 102.171 63.8136 101.808 64.9443 101.808C65.5416 101.808 66.0589 101.909 66.4963 102.112C66.9443 102.304 67.3123 102.587 67.6003 102.96C67.8883 103.323 68.1016 103.765 68.2403 104.288C68.3789 104.8 68.4483 105.371 68.4483 106C68.4483 107.355 68.1443 108.395 67.5363 109.12C66.9389 109.835 66.0749 110.192 64.9443 110.192C64.3469 110.192 63.8243 110.096 63.3763 109.904C62.9389 109.701 62.5763 109.419 62.2883 109.056C62.0003 108.683 61.7869 108.24 61.6483 107.728C61.5096 107.205 61.4403 106.629 61.4403 106ZM62.7682 106C62.7682 106.405 62.8056 106.795 62.8803 107.168C62.9656 107.541 63.0936 107.867 63.2643 108.144C63.4349 108.421 63.6589 108.645 63.9363 108.816C64.2136 108.987 64.5496 109.072 64.9443 109.072C66.3949 109.083 67.1203 108.059 67.1203 106C67.1203 105.584 67.0776 105.189 66.9923 104.816C66.9176 104.443 66.7949 104.117 66.6243 103.84C66.4536 103.563 66.2296 103.344 65.9523 103.184C65.6749 103.013 65.3389 102.928 64.9443 102.928C63.4936 102.917 62.7682 103.941 62.7682 106ZM81.372 106.624C81.372 107.115 81.2973 107.579 81.148 108.016C80.9987 108.443 80.78 108.821 80.492 109.152C80.204 109.472 79.8467 109.728 79.42 109.92C78.9933 110.101 78.508 110.192 77.964 110.192C77.4307 110.192 76.9507 110.107 76.524 109.936C76.0973 109.765 75.7293 109.515 75.42 109.184C75.1107 108.843 74.8707 108.427 74.7 107.936C74.54 107.445 74.46 106.88 74.46 106.24C74.46 105.184 74.5933 104.213 74.86 103.328C75.1373 102.432 75.516 101.653 75.996 100.992C76.476 100.331 77.0413 99.7973 77.692 99.392C78.3533 98.976 79.068 98.7147 79.836 98.608L80.108 99.632C79.5107 99.7387 78.9667 99.9413 78.476 100.24C77.9853 100.539 77.5533 100.907 77.18 101.344C76.8173 101.781 76.5187 102.272 76.284 102.816C76.0493 103.36 75.8893 103.92 75.804 104.496C75.9747 104.208 76.2627 103.947 76.668 103.712C77.0733 103.467 77.5693 103.344 78.156 103.344C79.1587 103.344 79.9427 103.632 80.508 104.208C81.084 104.784 81.372 105.589 81.372 106.624ZM80.044 106.752C80.044 105.995 79.868 105.424 79.516 105.04C79.164 104.656 78.62 104.464 77.884 104.464C77.3613 104.464 76.908 104.592 76.524 104.848C76.1507 105.104 75.8893 105.392 75.74 105.712C75.7187 105.861 75.708 105.984 75.708 106.08C75.708 106.176 75.708 106.283 75.708 106.4C75.708 106.731 75.7507 107.056 75.836 107.376C75.932 107.696 76.076 107.984 76.268 108.24C76.46 108.485 76.6947 108.688 76.972 108.848C77.26 108.997 77.596 109.072 77.98 109.072C78.2893 109.072 78.5667 109.013 78.812 108.896C79.068 108.779 79.2867 108.619 79.468 108.416C79.6493 108.213 79.788 107.968 79.884 107.68C79.9907 107.392 80.044 107.083 80.044 106.752ZM91.6141 103.12H89.2941C89.2621 103.568 89.2301 104.053 89.1981 104.576C89.1661 105.088 89.1181 105.605 89.0541 106.128C88.9901 106.64 88.9048 107.136 88.7981 107.616C88.6915 108.085 88.5528 108.501 88.3821 108.864C88.2221 109.227 88.0195 109.52 87.7741 109.744C87.5395 109.957 87.2568 110.064 86.9261 110.064C86.7235 110.064 86.5475 110.053 86.3981 110.032C86.2488 110.011 86.1155 109.973 85.9981 109.92L86.1901 108.848C86.3181 108.891 86.4568 108.912 86.6061 108.912C86.8195 108.912 87.0115 108.821 87.1821 108.64C87.3528 108.459 87.5021 108.117 87.6301 107.616C87.7581 107.104 87.8648 106.4 87.9501 105.504C88.0355 104.608 88.0941 103.44 88.1261 102H92.8941V110H91.6141V103.12ZM101.197 109.36C100.877 109.616 100.472 109.819 99.981 109.968C99.501 110.117 98.989 110.192 98.445 110.192C97.837 110.192 97.309 110.096 96.861 109.904C96.413 109.701 96.045 109.419 95.757 109.056C95.469 108.683 95.2557 108.24 95.117 107.728C94.9783 107.216 94.909 106.64 94.909 106C94.909 104.635 95.213 103.595 95.821 102.88C96.429 102.165 97.2983 101.808 98.429 101.808C98.7917 101.808 99.1543 101.851 99.517 101.936C99.8797 102.011 100.205 102.16 100.493 102.384C100.781 102.608 101.016 102.928 101.197 103.344C101.378 103.749 101.469 104.288 101.469 104.96C101.469 105.312 101.437 105.701 101.373 106.128H96.237C96.237 106.597 96.285 107.013 96.381 107.376C96.477 107.739 96.6263 108.048 96.829 108.304C97.0317 108.549 97.293 108.741 97.613 108.88C97.9437 109.008 98.3437 109.072 98.813 109.072C99.1757 109.072 99.5383 109.008 99.901 108.88C100.264 108.752 100.536 108.603 100.717 108.432L101.197 109.36ZM98.445 102.928C97.8157 102.928 97.309 103.093 96.925 103.424C96.5517 103.755 96.3277 104.32 96.253 105.12H100.221C100.221 104.309 100.066 103.744 99.757 103.424C99.4477 103.093 99.0103 102.928 98.445 102.928ZM108.57 103.12H106.074V110H104.794V103.12H102.298V102H108.57V103.12ZM113.607 102H114.487L114.727 102.96H114.791C115.036 102.587 115.351 102.304 115.735 102.112C116.13 101.909 116.578 101.808 117.079 101.808C118.146 101.808 118.94 102.123 119.463 102.752C119.986 103.381 120.247 104.411 120.247 105.84C120.247 106.512 120.156 107.12 119.975 107.664C119.804 108.197 119.559 108.651 119.239 109.024C118.919 109.397 118.53 109.685 118.071 109.888C117.623 110.091 117.122 110.192 116.567 110.192C116.172 110.192 115.858 110.165 115.623 110.112C115.399 110.069 115.154 109.989 114.887 109.872V113.2H113.607V102ZM116.839 102.928C116.295 102.928 115.863 103.072 115.543 103.36C115.234 103.637 115.015 104.064 114.887 104.64V108.608C115.079 108.757 115.298 108.875 115.543 108.96C115.788 109.035 116.114 109.072 116.519 109.072C117.255 109.072 117.836 108.8 118.263 108.256C118.7 107.701 118.919 106.891 118.919 105.824C118.919 105.387 118.882 104.992 118.807 104.64C118.732 104.277 118.61 103.973 118.439 103.728C118.279 103.472 118.066 103.275 117.799 103.136C117.543 102.997 117.223 102.928 116.839 102.928ZM122.135 102.592C122.541 102.347 123.01 102.165 123.543 102.048C124.087 101.931 124.653 101.872 125.239 101.872C125.794 101.872 126.237 101.947 126.567 102.096C126.909 102.245 127.165 102.443 127.335 102.688C127.517 102.923 127.634 103.184 127.687 103.472C127.751 103.76 127.783 104.048 127.783 104.336C127.783 104.976 127.767 105.6 127.735 106.208C127.703 106.816 127.687 107.392 127.687 107.936C127.687 108.331 127.703 108.704 127.735 109.056C127.767 109.408 127.826 109.733 127.911 110.032H126.967L126.631 108.912H126.551C126.455 109.061 126.333 109.211 126.183 109.36C126.045 109.499 125.874 109.627 125.671 109.744C125.469 109.851 125.234 109.941 124.967 110.016C124.701 110.091 124.397 110.128 124.055 110.128C123.714 110.128 123.394 110.075 123.095 109.968C122.807 109.861 122.557 109.712 122.343 109.52C122.13 109.317 121.959 109.077 121.831 108.8C121.714 108.523 121.655 108.208 121.655 107.856C121.655 107.387 121.751 106.997 121.943 106.688C122.135 106.368 122.402 106.117 122.743 105.936C123.095 105.744 123.511 105.611 123.991 105.536C124.482 105.451 125.021 105.408 125.607 105.408C125.757 105.408 125.901 105.408 126.039 105.408C126.189 105.408 126.338 105.419 126.487 105.44C126.519 105.12 126.535 104.832 126.535 104.576C126.535 103.989 126.418 103.579 126.183 103.344C125.949 103.109 125.522 102.992 124.903 102.992C124.722 102.992 124.525 103.008 124.311 103.04C124.109 103.061 123.895 103.099 123.671 103.152C123.458 103.195 123.25 103.253 123.047 103.328C122.855 103.392 122.685 103.467 122.535 103.552L122.135 102.592ZM124.407 109.008C124.706 109.008 124.973 108.971 125.207 108.896C125.442 108.811 125.645 108.709 125.815 108.592C125.986 108.464 126.125 108.325 126.231 108.176C126.349 108.027 126.434 107.883 126.487 107.744V106.416C126.338 106.405 126.183 106.4 126.023 106.4C125.874 106.389 125.725 106.384 125.575 106.384C125.245 106.384 124.919 106.405 124.599 106.448C124.29 106.48 124.013 106.549 123.767 106.656C123.533 106.752 123.341 106.891 123.191 107.072C123.053 107.243 122.983 107.461 122.983 107.728C122.983 108.101 123.117 108.411 123.383 108.656C123.65 108.891 123.991 109.008 124.407 109.008ZM130.969 106.432V105.392H132.089C132.281 105.392 132.467 105.36 132.649 105.296C132.841 105.232 133.011 105.147 133.161 105.04C133.31 104.923 133.427 104.789 133.513 104.64C133.609 104.48 133.657 104.315 133.657 104.144C133.657 103.728 133.513 103.435 133.225 103.264C132.937 103.093 132.505 103.008 131.929 103.008C131.513 103.008 131.129 103.072 130.777 103.2C130.435 103.328 130.169 103.451 129.977 103.568L129.609 102.576C129.929 102.395 130.302 102.235 130.729 102.096C131.166 101.957 131.683 101.888 132.281 101.888C134.051 101.888 134.937 102.544 134.937 103.856C134.937 104.229 134.814 104.597 134.569 104.96C134.334 105.312 133.993 105.563 133.545 105.712V105.776C134.174 105.893 134.611 106.117 134.857 106.448C135.113 106.779 135.241 107.216 135.241 107.76C135.241 108.101 135.171 108.416 135.033 108.704C134.894 108.992 134.686 109.243 134.409 109.456C134.131 109.669 133.779 109.84 133.353 109.968C132.937 110.085 132.451 110.144 131.897 110.144C131.353 110.144 130.899 110.096 130.537 110C130.185 109.904 129.865 109.787 129.577 109.648L129.945 108.592C130.19 108.731 130.483 108.837 130.825 108.912C131.177 108.987 131.555 109.024 131.961 109.024C132.611 109.024 133.107 108.912 133.449 108.688C133.79 108.464 133.961 108.123 133.961 107.664C133.961 107.28 133.801 106.981 133.481 106.768C133.161 106.544 132.633 106.432 131.897 106.432H130.969ZM143.871 105.248L143.967 103.728H143.887L143.311 104.96L141.375 108.096H140.927L138.911 104.96L138.383 103.728H138.319L138.447 105.232V110H137.263V102H138.527L140.767 105.584L141.231 106.512H141.263L141.743 105.552L143.839 102H145.119V110H143.871V105.248ZM153.416 109.36C153.096 109.616 152.69 109.819 152.2 109.968C151.72 110.117 151.208 110.192 150.664 110.192C150.056 110.192 149.528 110.096 149.08 109.904C148.632 109.701 148.264 109.419 147.976 109.056C147.688 108.683 147.474 108.24 147.336 107.728C147.197 107.216 147.128 106.64 147.128 106C147.128 104.635 147.432 103.595 148.04 102.88C148.648 102.165 149.517 101.808 150.648 101.808C151.01 101.808 151.373 101.851 151.736 101.936C152.098 102.011 152.424 102.16 152.712 102.384C153 102.608 153.234 102.928 153.416 103.344C153.597 103.749 153.688 104.288 153.688 104.96C153.688 105.312 153.656 105.701 153.592 106.128H148.456C148.456 106.597 148.504 107.013 148.6 107.376C148.696 107.739 148.845 108.048 149.048 108.304C149.25 108.549 149.512 108.741 149.832 108.88C150.162 109.008 150.562 109.072 151.032 109.072C151.394 109.072 151.757 109.008 152.12 108.88C152.482 108.752 152.754 108.603 152.936 108.432L153.416 109.36ZM150.664 102.928C150.034 102.928 149.528 103.093 149.144 103.424C148.77 103.755 148.546 104.32 148.472 105.12H152.44C152.44 104.309 152.285 103.744 151.976 103.424C151.666 103.093 151.229 102.928 150.664 102.928ZM166.165 112.08H165.301L165.061 110H155.701V102H156.981V108.88H159.717V102H160.997V108.88H163.733V102H165.013V108.88H166.165V112.08ZM167.62 102.592C168.025 102.347 168.494 102.165 169.028 102.048C169.572 101.931 170.137 101.872 170.724 101.872C171.278 101.872 171.721 101.947 172.052 102.096C172.393 102.245 172.649 102.443 172.82 102.688C173.001 102.923 173.118 103.184 173.172 103.472C173.236 103.76 173.268 104.048 173.268 104.336C173.268 104.976 173.252 105.6 173.22 106.208C173.188 106.816 173.172 107.392 173.172 107.936C173.172 108.331 173.188 108.704 173.22 109.056C173.252 109.408 173.31 109.733 173.396 110.032H172.452L172.116 108.912H172.036C171.94 109.061 171.817 109.211 171.668 109.36C171.529 109.499 171.358 109.627 171.156 109.744C170.953 109.851 170.718 109.941 170.452 110.016C170.185 110.091 169.881 110.128 169.54 110.128C169.198 110.128 168.878 110.075 168.58 109.968C168.292 109.861 168.041 109.712 167.828 109.52C167.614 109.317 167.444 109.077 167.316 108.8C167.198 108.523 167.14 108.208 167.14 107.856C167.14 107.387 167.236 106.997 167.428 106.688C167.62 106.368 167.886 106.117 168.228 105.936C168.58 105.744 168.996 105.611 169.476 105.536C169.966 105.451 170.505 105.408 171.092 105.408C171.241 105.408 171.385 105.408 171.524 105.408C171.673 105.408 171.822 105.419 171.972 105.44C172.004 105.12 172.02 104.832 172.02 104.576C172.02 103.989 171.902 103.579 171.668 103.344C171.433 103.109 171.006 102.992 170.388 102.992C170.206 102.992 170.009 103.008 169.796 103.04C169.593 103.061 169.38 103.099 169.156 103.152C168.942 103.195 168.734 103.253 168.532 103.328C168.34 103.392 168.169 103.467 168.02 103.552L167.62 102.592ZM169.892 109.008C170.19 109.008 170.457 108.971 170.692 108.896C170.926 108.811 171.129 108.709 171.3 108.592C171.47 108.464 171.609 108.325 171.716 108.176C171.833 108.027 171.918 107.883 171.972 107.744V106.416C171.822 106.405 171.668 106.4 171.508 106.4C171.358 106.389 171.209 106.384 171.06 106.384C170.729 106.384 170.404 106.405 170.084 106.448C169.774 106.48 169.497 106.549 169.252 106.656C169.017 106.752 168.825 106.891 168.676 107.072C168.537 107.243 168.468 107.461 168.468 107.728C168.468 108.101 168.601 108.411 168.868 108.656C169.134 108.891 169.476 109.008 169.892 109.008ZM181.893 110.192C181.317 110.192 180.821 110.107 180.405 109.936C180 109.755 179.664 109.504 179.397 109.184C179.141 108.853 178.944 108.459 178.805 108C178.677 107.531 178.597 107.019 178.565 106.464H176.965V110H175.685V102H176.965V105.344H178.581C178.666 104.203 178.976 103.328 179.509 102.72C180.053 102.112 180.858 101.808 181.925 101.808C182.512 101.808 183.008 101.909 183.413 102.112C183.829 102.304 184.165 102.587 184.421 102.96C184.688 103.323 184.88 103.765 184.997 104.288C185.114 104.8 185.173 105.371 185.173 106C185.173 107.355 184.901 108.395 184.357 109.12C183.824 109.835 183.002 110.192 181.893 110.192ZM179.829 106C179.829 106.416 179.861 106.811 179.925 107.184C179.989 107.557 180.101 107.888 180.261 108.176C180.421 108.453 180.634 108.672 180.901 108.832C181.178 108.992 181.52 109.072 181.925 109.072C182.608 109.072 183.098 108.827 183.397 108.336C183.696 107.835 183.845 107.056 183.845 106C183.845 105.584 183.813 105.189 183.749 104.816C183.696 104.443 183.594 104.117 183.445 103.84C183.296 103.552 183.098 103.328 182.853 103.168C182.608 103.008 182.293 102.928 181.909 102.928C181.173 102.928 180.64 103.179 180.309 103.68C179.989 104.171 179.829 104.944 179.829 106ZM192.023 103.12H189.527V110H188.247V103.12H185.751V102H192.023V103.12ZM198.501 109.472C198.181 109.707 197.802 109.883 197.365 110C196.927 110.128 196.469 110.192 195.989 110.192C195.37 110.192 194.847 110.096 194.421 109.904C193.994 109.701 193.642 109.419 193.365 109.056C193.098 108.683 192.901 108.24 192.773 107.728C192.655 107.205 192.597 106.629 192.597 106C192.597 104.645 192.895 103.611 193.493 102.896C194.09 102.171 194.949 101.808 196.069 101.808C196.581 101.808 197.013 101.851 197.365 101.936C197.727 102.011 198.053 102.123 198.341 102.272L197.973 103.376C197.727 103.237 197.455 103.131 197.157 103.056C196.858 102.971 196.538 102.928 196.197 102.928C194.682 102.928 193.924 103.952 193.924 106C193.924 106.405 193.962 106.795 194.037 107.168C194.122 107.531 194.255 107.856 194.437 108.144C194.629 108.421 194.874 108.645 195.173 108.816C195.482 108.987 195.861 109.072 196.309 109.072C196.693 109.072 197.034 109.013 197.333 108.896C197.642 108.779 197.893 108.645 198.085 108.496L198.501 109.472ZM204.247 106.688L203.015 106.88L200.903 110H199.351L201.271 107.264L201.911 106.672C201.357 106.587 200.882 106.363 200.487 106C200.103 105.637 199.911 105.147 199.911 104.528C199.911 104.048 199.991 103.637 200.151 103.296C200.322 102.955 200.562 102.672 200.871 102.448C201.181 102.224 201.549 102.064 201.975 101.968C202.402 101.861 202.882 101.808 203.415 101.808C203.81 101.808 204.178 101.835 204.519 101.888C204.861 101.941 205.197 102 205.527 102.064V110H204.247V106.688ZM204.247 103.088C204.109 103.035 203.954 102.997 203.783 102.976C203.613 102.944 203.463 102.928 203.335 102.928C202.653 102.928 202.13 103.051 201.767 103.296C201.415 103.541 201.239 103.931 201.239 104.464C201.239 104.944 201.426 105.317 201.799 105.584C202.183 105.84 202.685 105.968 203.303 105.968C203.314 105.968 203.33 105.968 203.351 105.968C203.373 105.968 203.415 105.968 203.479 105.968C203.543 105.968 203.634 105.968 203.751 105.968C203.869 105.957 204.034 105.947 204.247 105.936V103.088ZM53.968 123.424C54.32 122.912 54.7093 122.555 55.136 122.352C55.5627 122.139 56.096 122.032 56.736 122.032C57.7173 122.032 58.4693 122.352 58.992 122.992C59.5253 123.632 59.792 124.576 59.792 125.824C59.792 127.264 59.4827 128.352 58.864 129.088C58.256 129.824 57.4027 130.192 56.304 130.192C55.1307 130.192 54.2507 129.787 53.664 128.976C53.0773 128.165 52.784 126.891 52.784 125.152C52.784 124.235 52.8267 123.451 52.912 122.8C53.008 122.149 53.1413 121.6 53.312 121.152C53.4933 120.704 53.7067 120.347 53.952 120.08C54.208 119.813 54.4907 119.605 54.8 119.456C55.12 119.296 55.4667 119.184 55.84 119.12C56.2133 119.056 56.6133 119.003 57.04 118.96C57.5947 118.907 58.0267 118.848 58.336 118.784C58.656 118.709 58.912 118.581 59.104 118.4L59.248 119.552C59.1413 119.648 59.024 119.728 58.896 119.792C58.768 119.856 58.6133 119.909 58.432 119.952C58.2507 119.995 58.032 120.032 57.776 120.064C57.5307 120.096 57.2427 120.123 56.912 120.144C56.4533 120.176 56.048 120.235 55.696 120.32C55.3547 120.395 55.056 120.549 54.8 120.784C54.5547 121.008 54.3573 121.333 54.208 121.76C54.0693 122.176 53.9733 122.731 53.92 123.424H53.968ZM54.112 126.016C54.112 126.421 54.1547 126.811 54.24 127.184C54.3253 127.557 54.4533 127.888 54.624 128.176C54.8053 128.453 55.0347 128.672 55.312 128.832C55.5893 128.992 55.9147 129.072 56.288 129.072C57.024 129.072 57.568 128.811 57.92 128.288C58.2827 127.755 58.464 126.971 58.464 125.936C58.464 125.531 58.4267 125.157 58.352 124.816C58.2773 124.475 58.16 124.181 58 123.936C57.84 123.68 57.6373 123.488 57.392 123.36C57.1467 123.221 56.8533 123.152 56.512 123.152C55.68 123.141 55.072 123.387 54.688 123.888C54.304 124.379 54.112 125.088 54.112 126.016ZM67.6501 129.36C67.3301 129.616 66.9248 129.819 66.4341 129.968C65.9541 130.117 65.4421 130.192 64.8981 130.192C64.2901 130.192 63.7621 130.096 63.3141 129.904C62.8661 129.701 62.4981 129.419 62.2101 129.056C61.9221 128.683 61.7088 128.24 61.5701 127.728C61.4315 127.216 61.3621 126.64 61.3621 126C61.3621 124.635 61.6661 123.595 62.2741 122.88C62.8821 122.165 63.7515 121.808 64.8821 121.808C65.2448 121.808 65.6075 121.851 65.9701 121.936C66.3328 122.011 66.6581 122.16 66.9461 122.384C67.2341 122.608 67.4688 122.928 67.6501 123.344C67.8315 123.749 67.9221 124.288 67.9221 124.96C67.9221 125.312 67.8901 125.701 67.8261 126.128H62.6901C62.6901 126.597 62.7381 127.013 62.8341 127.376C62.9301 127.739 63.0795 128.048 63.2821 128.304C63.4848 128.549 63.7461 128.741 64.0661 128.88C64.3968 129.008 64.7968 129.072 65.2661 129.072C65.6288 129.072 65.9915 129.008 66.3541 128.88C66.7168 128.752 66.9888 128.603 67.1701 128.432L67.6501 129.36ZM64.8981 122.928C64.2688 122.928 63.7621 123.093 63.3781 123.424C63.0048 123.755 62.7808 124.32 62.7061 125.12H66.6741C66.6741 124.309 66.5195 123.744 66.2101 123.424C65.9008 123.093 65.4635 122.928 64.8981 122.928ZM75.2193 129.472C74.8993 129.707 74.5206 129.883 74.0833 130C73.6459 130.128 73.1873 130.192 72.7073 130.192C72.0886 130.192 71.5659 130.096 71.1393 129.904C70.7126 129.701 70.3606 129.419 70.0833 129.056C69.8166 128.683 69.6193 128.24 69.4913 127.728C69.3739 127.205 69.3153 126.629 69.3153 126C69.3153 124.645 69.6139 123.611 70.2113 122.896C70.8086 122.171 71.6673 121.808 72.7873 121.808C73.2993 121.808 73.7313 121.851 74.0833 121.936C74.4459 122.011 74.7713 122.123 75.0593 122.272L74.6913 123.376C74.4459 123.237 74.1739 123.131 73.8753 123.056C73.5766 122.971 73.2566 122.928 72.9153 122.928C71.4006 122.928 70.6432 123.952 70.6432 126C70.6432 126.405 70.6806 126.795 70.7553 127.168C70.8406 127.531 70.9739 127.856 71.1553 128.144C71.3473 128.421 71.5926 128.645 71.8913 128.816C72.2006 128.987 72.5793 129.072 73.0273 129.072C73.4113 129.072 73.7526 129.013 74.0513 128.896C74.3606 128.779 74.6113 128.645 74.8033 128.496L75.2193 129.472ZM81.798 123.12H78.262V130H76.982V122H83.078V130H81.798V123.12ZM89.8485 123.12H87.5285C87.4965 123.568 87.4645 124.053 87.4325 124.576C87.4005 125.088 87.3525 125.605 87.2885 126.128C87.2245 126.64 87.1392 127.136 87.0325 127.616C86.9258 128.085 86.7872 128.501 86.6165 128.864C86.4565 129.227 86.2538 129.52 86.0085 129.744C85.7738 129.957 85.4912 130.064 85.1605 130.064C84.9578 130.064 84.7818 130.053 84.6325 130.032C84.4832 130.011 84.3498 129.973 84.2325 129.92L84.4245 128.848C84.5525 128.891 84.6912 128.912 84.8405 128.912C85.0538 128.912 85.2458 128.821 85.4165 128.64C85.5872 128.459 85.7365 128.117 85.8645 127.616C85.9925 127.104 86.0992 126.4 86.1845 125.504C86.2698 124.608 86.3285 123.44 86.3605 122H91.1285V130H89.8485V123.12ZM93.4634 122.592C93.8687 122.347 94.338 122.165 94.8714 122.048C95.4154 121.931 95.9807 121.872 96.5674 121.872C97.122 121.872 97.5647 121.947 97.8954 122.096C98.2367 122.245 98.4927 122.443 98.6634 122.688C98.8447 122.923 98.962 123.184 99.0154 123.472C99.0794 123.76 99.1114 124.048 99.1114 124.336C99.1114 124.976 99.0954 125.6 99.0634 126.208C99.0314 126.816 99.0154 127.392 99.0154 127.936C99.0154 128.331 99.0314 128.704 99.0634 129.056C99.0954 129.408 99.154 129.733 99.2394 130.032H98.2954L97.9594 128.912H97.8794C97.7834 129.061 97.6607 129.211 97.5114 129.36C97.3727 129.499 97.202 129.627 96.9994 129.744C96.7967 129.851 96.562 129.941 96.2954 130.016C96.0287 130.091 95.7247 130.128 95.3834 130.128C95.042 130.128 94.722 130.075 94.4234 129.968C94.1354 129.861 93.8847 129.712 93.6714 129.52C93.458 129.317 93.2874 129.077 93.1594 128.8C93.042 128.523 92.9834 128.208 92.9834 127.856C92.9834 127.387 93.0794 126.997 93.2714 126.688C93.4634 126.368 93.73 126.117 94.0714 125.936C94.4234 125.744 94.8394 125.611 95.3194 125.536C95.81 125.451 96.3487 125.408 96.9354 125.408C97.0847 125.408 97.2287 125.408 97.3674 125.408C97.5167 125.408 97.666 125.419 97.8154 125.44C97.8474 125.12 97.8634 124.832 97.8634 124.576C97.8634 123.989 97.746 123.579 97.5114 123.344C97.2767 123.109 96.85 122.992 96.2314 122.992C96.05 122.992 95.8527 123.008 95.6394 123.04C95.4367 123.061 95.2234 123.099 94.9994 123.152C94.786 123.195 94.578 123.253 94.3754 123.328C94.1834 123.392 94.0127 123.467 93.8634 123.552L93.4634 122.592ZM95.7354 129.008C96.034 129.008 96.3007 128.971 96.5354 128.896C96.77 128.811 96.9727 128.709 97.1434 128.592C97.314 128.464 97.4527 128.325 97.5594 128.176C97.6767 128.027 97.762 127.883 97.8154 127.744V126.416C97.666 126.405 97.5114 126.4 97.3514 126.4C97.202 126.389 97.0527 126.384 96.9034 126.384C96.5727 126.384 96.2474 126.405 95.9274 126.448C95.618 126.48 95.3407 126.549 95.0954 126.656C94.8607 126.752 94.6687 126.891 94.5194 127.072C94.3807 127.243 94.3114 127.461 94.3114 127.728C94.3114 128.101 94.4447 128.411 94.7114 128.656C94.978 128.891 95.3194 129.008 95.7354 129.008ZM106.617 123.12H104.121V130H102.841V123.12H100.345V122H106.617V123.12ZM112.784 126.464H109.168V130H107.888V122H109.168V125.344H112.784V122H114.064V130H112.784V126.464ZM116.081 126C116.081 124.645 116.38 123.611 116.977 122.896C117.585 122.171 118.454 121.808 119.585 121.808C120.182 121.808 120.7 121.909 121.137 122.112C121.585 122.304 121.953 122.587 122.241 122.96C122.529 123.323 122.742 123.765 122.881 124.288C123.02 124.8 123.089 125.371 123.089 126C123.089 127.355 122.785 128.395 122.177 129.12C121.58 129.835 120.716 130.192 119.585 130.192C118.988 130.192 118.465 130.096 118.017 129.904C117.58 129.701 117.217 129.419 116.929 129.056C116.641 128.683 116.428 128.24 116.289 127.728C116.15 127.205 116.081 126.629 116.081 126ZM117.409 126C117.409 126.405 117.446 126.795 117.521 127.168C117.606 127.541 117.734 127.867 117.905 128.144C118.076 128.421 118.3 128.645 118.577 128.816C118.854 128.987 119.19 129.072 119.585 129.072C121.036 129.083 121.761 128.059 121.761 126C121.761 125.584 121.718 125.189 121.633 124.816C121.558 124.443 121.436 124.117 121.265 123.84C121.094 123.563 120.87 123.344 120.593 123.184C120.316 123.013 119.98 122.928 119.585 122.928C118.134 122.917 117.409 123.941 117.409 126ZM124.472 129.264C124.472 128.976 124.552 128.752 124.712 128.592C124.882 128.421 125.106 128.336 125.384 128.336C125.672 128.336 125.901 128.421 126.072 128.592C126.242 128.752 126.328 128.976 126.328 129.264C126.328 129.541 126.242 129.765 126.072 129.936C125.901 130.107 125.672 130.192 125.384 130.192C125.106 130.192 124.882 130.107 124.712 129.936C124.552 129.765 124.472 129.541 124.472 129.264Z" fill="white"/>
<path d="M157.5 6L167 15H148L157.5 6Z" fill="#333333"/>
<defs>
<filter id="filter0_d_18711_282" x="0" y="0" width="316" height="203" filterUnits="userSpaceOnUse" color-interpolation-filters="sRGB">
<feFlood flood-opacity="0" result="BackgroundImageFix"/>
<feColorMatrix in="SourceAlpha" type="matrix" values="0 0 0 0 0 0 0 0 0 0 0 0 0 0 0 0 0 0 127 0" result="hardAlpha"/>
<feOffset dy="15"/>
<feGaussianBlur stdDeviation="15"/>
<feColorMatrix type="matrix" values="0 0 0 0 0 0 0 0 0 0 0 0 0 0 0 0 0 0 0.3 0"/>
<feBlend mode="normal" in2="BackgroundImageFix" result="effect1_dropShadow_18711_282"/>
<feBlend mode="normal" in="SourceGraphic" in2="effect1_dropShadow_18711_282" result="shape"/>
</filter>
</defs>
</svg>
